<?xml version="1.0" encoding="UTF-8"?>
<svg width="106px" height="42px" viewBox="0 0 106 42" version="1.1" xmlns="http://www.w3.org/2000/svg" xmlns:xlink="http://www.w3.org/1999/xlink">
    <title>Group 4</title>
    <g id="Bin" stroke="none" stroke-width="1" fill="none" fill-rule="evenodd">
        <g id="dashboard_tooltip_hover">
            <g id="Group-15" transform="translate(32.000000, 0.000000)">
                <rect id="Rectangle" fill="#EFF3F6" fill-rule="nonzero" x="0" y="0" width="42" height="42" rx="10"></rect>
                <g id="person_add_black_24dp" transform="translate(7.000000, 8.000000)">
                    <polygon id="Path" points="0 0 27.0833333 0 27.0833333 26 0 26"></polygon>
                    <path d="M15.9904514,13 C18.1726345,13 19.9401042,11.3032292 19.9401042,9.20833333 C19.9401042,7.1134375 18.1726345,5.41666667 15.9904514,5.41666667 C13.8082682,5.41666667 12.0407986,7.1134375 12.0407986,9.20833333 C12.0407986,11.3032292 13.8082682,13 15.9904514,13 Z M15.9904514,7.3125 C17.0766059,7.3125 17.9652778,8.165625 17.9652778,9.20833333 C17.9652778,10.2510417 17.0766059,11.1041667 15.9904514,11.1041667 C14.9042969,11.1041667 14.015625,10.2510417 14.015625,9.20833333 C14.015625,8.165625 14.9042969,7.3125 15.9904514,7.3125 Z M15.9904514,14.8958333 C13.3540582,14.8958333 8.09114583,16.1660417 8.09114583,18.6875 L8.09114583,20.5833333 L23.8897569,20.5833333 L23.8897569,18.6875 C23.8897569,16.1660417 18.6268446,14.8958333 15.9904514,14.8958333 Z M10.0659722,18.6875 C10.2832031,18.005 13.3343099,16.7916667 15.9904514,16.7916667 C18.656467,16.7916667 21.7174479,18.0144792 21.9149306,18.6875 L10.0659722,18.6875 Z M7.10373264,15.84375 L7.10373264,13 L10.0659722,13 L10.0659722,11.1041667 L7.10373264,11.1041667 L7.10373264,8.26041667 L5.12890625,8.26041667 L5.12890625,11.1041667 L2.16666667,11.1041667 L2.16666667,13 L5.12890625,13 L5.12890625,15.84375 L7.10373264,15.84375 Z" id="Shape" fill="#5C63AB"></path>
                </g>
            </g>
            <g id="Group-15-Copy" opacity="0.497827439" transform="translate(82.000000, 9.000000)">
                <rect id="Rectangle" fill="#EFF3F6" fill-rule="nonzero" opacity="0.3" x="0" y="0" width="24" height="24" rx="6"></rect>
                <g id="person_add_black_24dp" transform="translate(3.000000, 3.000000)">
                    <polygon id="Path" points="0 0 17.7083333 0 17.7083333 17 0 17"></polygon>
                    <path d="M10.4552951,8.5 C11.8821072,8.5 13.0377604,7.39057292 13.0377604,6.02083333 C13.0377604,4.65109375 11.8821072,3.54166667 10.4552951,3.54166667 C9.02848307,3.54166667 7.87282986,4.65109375 7.87282986,6.02083333 C7.87282986,7.39057292 9.02848307,8.5 10.4552951,8.5 Z M10.4552951,4.78125 C11.1654731,4.78125 11.7465278,5.3390625 11.7465278,6.02083333 C11.7465278,6.70260417 11.1654731,7.26041667 10.4552951,7.26041667 C9.74511719,7.26041667 9.1640625,6.70260417 9.1640625,6.02083333 C9.1640625,5.3390625 9.74511719,4.78125 10.4552951,4.78125 Z M10.4552951,9.73958333 C8.73149957,9.73958333 5.29036458,10.5701042 5.29036458,12.21875 L5.29036458,13.4583333 L15.6202257,13.4583333 L15.6202257,12.21875 C15.6202257,10.5701042 12.1790907,9.73958333 10.4552951,9.73958333 Z M6.58159722,12.21875 C6.72363281,11.7725 8.71858724,10.9791667 10.4552951,10.9791667 C12.1984592,10.9791667 14.1998698,11.7786979 14.3289931,12.21875 L6.58159722,12.21875 Z M4.64474826,10.359375 L4.64474826,8.5 L6.58159722,8.5 L6.58159722,7.26041667 L4.64474826,7.26041667 L4.64474826,5.40104167 L3.35351562,5.40104167 L3.35351562,7.26041667 L1.41666667,7.26041667 L1.41666667,8.5 L3.35351562,8.5 L3.35351562,10.359375 L4.64474826,10.359375 Z" id="Shape" fill="#FFFFFF"></path>
                </g>
            </g>
            <g id="Group-15-Copy-2" opacity="0.497827439" transform="translate(0.000000, 9.000000)">
                <rect id="Rectangle" fill="#EFF3F6" fill-rule="nonzero" opacity="0.3" x="0" y="0" width="24" height="24" rx="6"></rect>
                <g id="person_add_black_24dp" transform="translate(3.000000, 3.000000)">
                    <polygon id="Path" points="0 0 17.7083333 0 17.7083333 17 0 17"></polygon>
                    <path d="M10.4552951,8.5 C11.8821072,8.5 13.0377604,7.39057292 13.0377604,6.02083333 C13.0377604,4.65109375 11.8821072,3.54166667 10.4552951,3.54166667 C9.02848307,3.54166667 7.87282986,4.65109375 7.87282986,6.02083333 C7.87282986,7.39057292 9.02848307,8.5 10.4552951,8.5 Z M10.4552951,4.78125 C11.1654731,4.78125 11.7465278,5.3390625 11.7465278,6.02083333 C11.7465278,6.70260417 11.1654731,7.26041667 10.4552951,7.26041667 C9.74511719,7.26041667 9.1640625,6.70260417 9.1640625,6.02083333 C9.1640625,5.3390625 9.74511719,4.78125 10.4552951,4.78125 Z M10.4552951,9.73958333 C8.73149957,9.73958333 5.29036458,10.5701042 5.29036458,12.21875 L5.29036458,13.4583333 L15.6202257,13.4583333 L15.6202257,12.21875 C15.6202257,10.5701042 12.1790907,9.73958333 10.4552951,9.73958333 Z M6.58159722,12.21875 C6.72363281,11.7725 8.71858724,10.9791667 10.4552951,10.9791667 C12.1984592,10.9791667 14.1998698,11.7786979 14.3289931,12.21875 L6.58159722,12.21875 Z M4.64474826,10.359375 L4.64474826,8.5 L6.58159722,8.5 L6.58159722,7.26041667 L4.64474826,7.26041667 L4.64474826,5.40104167 L3.35351562,5.40104167 L3.35351562,7.26041667 L1.41666667,7.26041667 L1.41666667,8.5 L3.35351562,8.5 L3.35351562,10.359375 L4.64474826,10.359375 Z" id="Shape" fill="#FFFFFF"></path>
                </g>
            </g>
        </g>
    </g>
</svg>