<?xml version="1.0" encoding="UTF-8"?>
<svg width="106px" height="42px" viewBox="0 0 106 42" version="1.1" xmlns="http://www.w3.org/2000/svg" xmlns:xlink="http://www.w3.org/1999/xlink">
    <title>FL-Accounts</title>
    <g id="Bin" stroke="none" stroke-width="1" fill="none" fill-rule="evenodd">
        <g id="dashboard_tooltip_hover">
            <g id="Group-15-Copy" opacity="0.497827439" transform="translate(0.000000, 9.000000)" fill="#EFF3F6" fill-rule="nonzero">
                <rect id="Rectangle" opacity="0.3" x="0" y="0" width="24" height="24" rx="6"></rect>
            </g>
            <g id="id_User" opacity="0.400000006" transform="translate(5.000000, 14.000000)">
                <rect id="Icon-Spacing" opacity="0" x="0" y="0" width="14" height="14" rx="5"></rect>
                <g id="Account-Icon" transform="translate(2.625000, 1.458333)" fill="#FFFFFF" fill-rule="nonzero">
                    <path d="M4.375,5.54166667 C6.74386841,5.54166667 8.67301022,7.42436007 8.74775209,9.77507355 L8.75,9.91666667 C8.75,10.5205211 8.26047924,11.0100419 7.65662479,11.0100419 L1.09337521,11.0100419 C0.489520757,11.0100419 7.39508426e-17,10.5205211 0,9.91666667 L0,9.91666667 L0,9.91666667 C0,7.50042089 1.95875422,5.54166667 4.375,5.54166667 Z M4.375,6.70833333 C2.64630383,6.70833333 1.2369355,8.07553834 1.1692142,9.78762917 L1.16783333,9.84316667 L7.58158333,9.84316667 L7.5807858,9.78762917 C7.51475753,8.11834061 6.17332606,6.77690914 4.5040375,6.71088087 L4.375,6.70833333 Z" id="Oval"></path>
                    <path d="M4.22916667,0 C5.75945566,0 7,1.24054434 7,2.77083333 C7,4.30112233 5.75945566,5.54166667 4.22916667,5.54166667 C2.69887767,5.54166667 1.45833333,4.30112233 1.45833333,2.77083333 C1.45833333,1.24054434 2.69887767,0 4.22916667,0 Z M4.22916667,1.16666667 C3.34320988,1.16666667 2.625,1.88487655 2.625,2.77083333 C2.625,3.65679012 3.34320988,4.375 4.22916667,4.375 C5.11512345,4.375 5.83333333,3.65679012 5.83333333,2.77083333 C5.83333333,1.88487655 5.11512345,1.16666667 4.22916667,1.16666667 Z" id="Oval"></path>
                </g>
            </g>
            <g id="id_User" opacity="0.400000006" transform="translate(87.000000, 14.000000)">
                <rect id="Icon-Spacing" opacity="0" x="0" y="0" width="14" height="14" rx="5"></rect>
                <g id="Account-Icon" transform="translate(2.625000, 1.458333)" fill="#FFFFFF" fill-rule="nonzero">
                    <path d="M4.375,5.54166667 C6.74386841,5.54166667 8.67301022,7.42436007 8.74775209,9.77507355 L8.75,9.91666667 C8.75,10.5205211 8.26047924,11.0100419 7.65662479,11.0100419 L1.09337521,11.0100419 C0.489520757,11.0100419 7.39508426e-17,10.5205211 0,9.91666667 L0,9.91666667 L0,9.91666667 C0,7.50042089 1.95875422,5.54166667 4.375,5.54166667 Z M4.375,6.70833333 C2.64630383,6.70833333 1.2369355,8.07553834 1.1692142,9.78762917 L1.16783333,9.84316667 L7.58158333,9.84316667 L7.5807858,9.78762917 C7.51475753,8.11834061 6.17332606,6.77690914 4.5040375,6.71088087 L4.375,6.70833333 Z" id="Oval"></path>
                    <path d="M4.22916667,0 C5.75945566,0 7,1.24054434 7,2.77083333 C7,4.30112233 5.75945566,5.54166667 4.22916667,5.54166667 C2.69887767,5.54166667 1.45833333,4.30112233 1.45833333,2.77083333 C1.45833333,1.24054434 2.69887767,0 4.22916667,0 Z M4.22916667,1.16666667 C3.34320988,1.16666667 2.625,1.88487655 2.625,2.77083333 C2.625,3.65679012 3.34320988,4.375 4.22916667,4.375 C5.11512345,4.375 5.83333333,3.65679012 5.83333333,2.77083333 C5.83333333,1.88487655 5.11512345,1.16666667 4.22916667,1.16666667 Z" id="Oval"></path>
                </g>
            </g>
            <rect id="Rectangle" fill="#EFF3F6" fill-rule="nonzero" x="32" y="0" width="42" height="42" rx="10"></rect>
            <g id="id_User" transform="translate(41.000000, 9.000000)">
                <rect id="Icon-Spacing" opacity="0" x="0" y="0" width="24" height="24" rx="5"></rect>
                <g id="Account-Icon" transform="translate(4.500000, 2.500000)" fill="#1F3D5A" fill-rule="nonzero">
                    <path d="M7.5,9.5 C11.5609173,9.5 14.8680175,12.7274744 14.9961464,16.7572689 L15,17 C15,18.0351791 14.1608216,18.8743575 13.1256425,18.8743575 L1.87435751,18.8743575 C0.83917844,18.8743575 1.26772873e-16,18.0351791 0,17 L0,17 L0,17 C0,12.8578644 3.35786438,9.5 7.5,9.5 Z M7.5,11.5 C4.53652085,11.5 2.12046086,13.84378 2.0043672,16.7787929 L2.002,16.874 L12.997,16.874 L12.9956328,16.7787929 C12.8824415,13.9171553 10.5828447,11.6175585 7.72120714,11.5043672 L7.5,11.5 Z" id="Oval"></path>
                    <path d="M7.25,0 C9.87335256,0 12,2.12664744 12,4.75 C12,7.37335256 9.87335256,9.5 7.25,9.5 C4.62664744,9.5 2.5,7.37335256 2.5,4.75 C2.5,2.12664744 4.62664744,0 7.25,0 Z M7.25,2 C5.73121694,2 4.5,3.23121694 4.5,4.75 C4.5,6.26878306 5.73121694,7.5 7.25,7.5 C8.76878306,7.5 10,6.26878306 10,4.75 C10,3.23121694 8.76878306,2 7.25,2 Z" id="Oval"></path>
                </g>
            </g>
            <g id="Group-15-Copy" opacity="0.497827439" transform="translate(82.000000, 9.000000)" fill="#EFF3F6" fill-rule="nonzero">
                <rect id="Rectangle" opacity="0.3" x="0" y="0" width="24" height="24" rx="6"></rect>
            </g>
        </g>
    </g>
</svg>