<?xml version="1.0" encoding="UTF-8"?>
<svg width="106px" height="42px" viewBox="0 0 106 42" version="1.1" xmlns="http://www.w3.org/2000/svg" xmlns:xlink="http://www.w3.org/1999/xlink">
    <title>admin_user_tooltip_hover@2x</title>
    <g id="Help-and-Support" stroke="none" stroke-width="1" fill="none" fill-rule="evenodd">
        <g id="admin_user_tooltip_hover">
            <g id="Group-15-Copy" opacity="0.497827439" transform="translate(0.000000, 9.000000)" fill="#EFF3F6" fill-rule="nonzero">
                <rect id="Rectangle" opacity="0.3" x="0" y="0" width="24" height="24" rx="6"></rect>
            </g>
            <rect id="Rectangle" fill="#EFF3F6" fill-rule="nonzero" x="32" y="0" width="42" height="42" rx="10"></rect>
            <g id="id_User" transform="translate(41.000000, 9.000000)">
                <rect id="Icon-Spacing" opacity="0" x="0" y="0" width="24" height="24" rx="5"></rect>
                <g id="Icon/-Add-Member-Copy" transform="translate(2.000000, 2.000000)" fill="#173E67" fill-rule="nonzero">
                    <path d="M10,20 C7.34780466,20 4.80432283,18.9464361 2.92897908,17.0710209 C1.0535639,15.1957486 0,12.6521239 0,10 C0,7.34787609 1.0535639,4.80432283 2.92897908,2.92897908 C4.8042514,1.0535639 7.34787609,0 10,0 C12.6521239,0 15.1956772,1.0535639 17.0710209,2.92897908 C18.9464361,4.8042514 20,7.34787609 20,10 C19.9969308,12.6511953 18.9424004,15.1928201 17.0676995,17.0674495 C15.1929986,18.9421504 12.6513025,19.9967143 10.00025,19.99975 L10,20 Z M9.87192949,2.3719652 C7.88278543,2.3719652 5.97506091,3.16219697 4.56857942,4.56867845 C3.16209794,5.97528656 2.37192949,7.88307439 2.37192949,9.87202851 C2.37192949,11.8609826 3.16209794,13.7688971 4.56857942,15.1753786 C5.97518753,16.5818601 7.88297536,17.3720285 9.87192949,17.3720285 C11.8608836,17.3720285 13.7687981,16.5818601 15.1752795,15.1753786 C16.581761,13.7687705 17.3719295,11.8609826 17.3719295,9.87202851 C17.36958,7.8836442 16.5786587,5.97737586 15.1726837,4.57121094 C13.7665821,3.16523595 11.8601872,2.37433941 9.87186617,2.3719652 L9.87192949,2.3719652 Z" id="Shape"></path>
                    <g id="Group" transform="translate(6.923143, 5.384659)">
                        <path d="M3.07685659,7.69217631 C2.87289734,7.69217631 2.67718088,7.61112331 2.53293191,7.46687077 C2.38867937,7.32261823 2.30762637,7.12703034 2.30762637,6.92305323 C2.40737566,5.94566735 2.90655067,5.05295944 3.68679509,4.45614228 C4.16461311,3.97846712 4.61535989,3.52757748 4.61535989,3.0768307 C4.61535989,2.52715606 4.32211556,2.01937397 3.84611538,1.74451879 C3.37011878,1.46968861 2.78362297,1.46968861 2.30762637,1.74451879 C1.83162977,2.01934897 1.53838187,2.52715606 1.53838187,3.0768307 C1.53838187,3.35166088 1.39175792,3.60557692 1.15374176,3.7429688 C0.915739888,3.88038568 0.62263841,3.88038568 0.38464011,3.7429688 C0.146638238,3.60555192 0,3.35165017 0,3.0768307 C0,1.97765998 0.586352955,0.961881522 1.53834615,0.412242591 C2.49033935,-0.13739634 3.66333098,-0.137432054 4.61532418,0.412242591 C5.56731738,0.961917236 6.15367033,1.97765998 6.15367033,3.0768307 C6.05392104,4.05421658 5.55488889,4.94692449 4.77450161,5.54374165 C4.29682645,6.02141681 3.84607967,6.47216359 3.84607967,6.92305323 C3.84607967,7.12701249 3.76502668,7.3226218 3.62077414,7.46687077 C3.4765216,7.61112331 3.28079442,7.69217631 3.07684945,7.69217631 L3.07685659,7.69217631 Z" id="Path"></path>
                        <path d="M3.84613681,9.23073674 C3.84613681,9.65555514 3.50169285,9.99998125 3.07689231,9.99998125 C2.65209177,9.99998125 2.3076478,9.65553728 2.3076478,9.23073674 C2.3076478,8.80593621 2.65209177,8.46149224 3.07689231,8.46149224 C3.50169285,8.46149224 3.84613681,8.80593621 3.84613681,9.23073674" id="Path"></path>
                    </g>
                </g>
            </g>
            <g id="id_User" transform="translate(5.000000, 14.000000)">
                <rect id="Icon-Spacing" opacity="0" x="0" y="0" width="14" height="14" rx="5"></rect>
                <g id="Icon/-Add-Member-Copy" transform="translate(1.166667, 1.166667)" fill="#8A99A9" fill-rule="nonzero">
                    <path d="M5.83333333,11.6666667 C4.28621938,11.6666667 2.80252165,11.0520877 1.70857113,9.95809554 C0.614578943,8.86418668 0,7.38040562 0,5.83333333 C0,4.28626105 0.614578943,2.80252165 1.70857113,1.70857113 C2.80247998,0.614578943 4.28626105,0 5.83333333,0 C7.38040562,0 8.86414502,0.614578943 9.95809554,1.70857113 C11.0520877,2.80247998 11.6666667,4.28626105 11.6666667,5.83333333 C11.6648763,7.37986395 11.0497336,8.86247836 9.95615805,9.95601222 C8.86258253,11.0495877 7.37992645,11.66475 5.83347917,11.6665208 L5.83333333,11.6666667 Z M5.75862553,1.38364637 C4.5982915,1.38364637 3.4854522,1.8446149 2.66500466,2.66506243 C1.84455713,3.48558383 1.38362553,4.59846006 1.38362553,5.7586833 C1.38362553,6.91890654 1.84455713,8.03185664 2.66500466,8.85230417 C3.48552606,9.6727517 4.59840229,10.1336833 5.75862553,10.1336833 C6.91884877,10.1336833 8.03179887,9.6727517 8.8522464,8.85230417 C9.67269394,8.03178277 10.1336255,6.91890654 10.1336255,5.7586833 C10.132255,4.59879245 9.67088426,3.48680259 8.85073219,2.66653972 C8.03050624,1.84638764 6.91844252,1.38503132 5.7585886,1.38364637 L5.75862553,1.38364637 Z" id="Shape"></path>
                    <g id="Group" transform="translate(4.038500, 3.141051)">
                        <path d="M1.79483301,4.48710285 C1.67585678,4.48710285 1.56168885,4.43982193 1.47754361,4.35567462 C1.3933963,4.2715273 1.34611538,4.15743437 1.34611538,4.03844772 C1.40430247,3.46830596 1.69548789,2.94755968 2.15063047,2.59941633 C2.42935765,2.32077249 2.69229327,2.05775353 2.69229327,1.79481791 C2.69229327,1.47417437 2.52123407,1.17796815 2.24356731,1.01763596 C1.96590262,0.857318356 1.62378007,0.857318356 1.34611538,1.01763596 C1.0684507,1.17795357 0.897389423,1.47417437 0.897389423,1.79481791 C0.897389423,1.95513551 0.811858784,2.10325321 0.673016026,2.18339847 C0.534181601,2.26355831 0.363205739,2.26355831 0.224373397,2.18339847 C0.0855389723,2.10323862 0,1.95512926 0,1.79481791 C0,1.15363499 0.342039224,0.561097555 0.89736859,0.240474845 C1.45269796,-0.080147865 2.13694307,-0.0801686981 2.69227244,0.240474845 C3.2476018,0.561118388 3.58964103,1.15363499 3.58964103,1.79481791 C3.53145394,2.36495967 3.24035185,2.88570595 2.78512594,3.2338493 C2.5064821,3.51249314 2.24354647,3.77542876 2.24354647,4.03844772 C2.24354647,4.15742395 2.19626556,4.27152938 2.11211825,4.35567462 C2.02797093,4.43982193 1.91379675,4.48710285 1.79482885,4.48710285 L1.79483301,4.48710285 Z" id="Path"></path>
                        <path d="M2.24357981,5.38459643 C2.24357981,5.63240716 2.04265416,5.8333224 1.79485385,5.8333224 C1.54705353,5.8333224 1.34612788,5.63239675 1.34612788,5.38459643 C1.34612788,5.13679612 1.54705353,4.93587047 1.79485385,4.93587047 C2.04265416,4.93587047 2.24357981,5.13679612 2.24357981,5.38459643" id="Path"></path>
                    </g>
                </g>
            </g>
            <g id="id_User" transform="translate(5.000000, 14.000000)">
                <rect id="Icon-Spacing" opacity="0" x="0" y="0" width="14" height="14" rx="5"></rect>
                <g id="Icon/-Add-Member-Copy" transform="translate(1.166667, 1.166667)" fill="#8A99A9" fill-rule="nonzero">
                    <path d="M5.83333333,11.6666667 C4.28621938,11.6666667 2.80252165,11.0520877 1.70857113,9.95809554 C0.614578943,8.86418668 0,7.38040562 0,5.83333333 C0,4.28626105 0.614578943,2.80252165 1.70857113,1.70857113 C2.80247998,0.614578943 4.28626105,0 5.83333333,0 C7.38040562,0 8.86414502,0.614578943 9.95809554,1.70857113 C11.0520877,2.80247998 11.6666667,4.28626105 11.6666667,5.83333333 C11.6648763,7.37986395 11.0497336,8.86247836 9.95615805,9.95601222 C8.86258253,11.0495877 7.37992645,11.66475 5.83347917,11.6665208 L5.83333333,11.6666667 Z M5.75862553,1.38364637 C4.5982915,1.38364637 3.4854522,1.8446149 2.66500466,2.66506243 C1.84455713,3.48558383 1.38362553,4.59846006 1.38362553,5.7586833 C1.38362553,6.91890654 1.84455713,8.03185664 2.66500466,8.85230417 C3.48552606,9.6727517 4.59840229,10.1336833 5.75862553,10.1336833 C6.91884877,10.1336833 8.03179887,9.6727517 8.8522464,8.85230417 C9.67269394,8.03178277 10.1336255,6.91890654 10.1336255,5.7586833 C10.132255,4.59879245 9.67088426,3.48680259 8.85073219,2.66653972 C8.03050624,1.84638764 6.91844252,1.38503132 5.7585886,1.38364637 L5.75862553,1.38364637 Z" id="Shape"></path>
                    <g id="Group" transform="translate(4.038500, 3.141051)">
                        <path d="M1.79483301,4.48710285 C1.67585678,4.48710285 1.56168885,4.43982193 1.47754361,4.35567462 C1.3933963,4.2715273 1.34611538,4.15743437 1.34611538,4.03844772 C1.40430247,3.46830596 1.69548789,2.94755968 2.15063047,2.59941633 C2.42935765,2.32077249 2.69229327,2.05775353 2.69229327,1.79481791 C2.69229327,1.47417437 2.52123407,1.17796815 2.24356731,1.01763596 C1.96590262,0.857318356 1.62378007,0.857318356 1.34611538,1.01763596 C1.0684507,1.17795357 0.897389423,1.47417437 0.897389423,1.79481791 C0.897389423,1.95513551 0.811858784,2.10325321 0.673016026,2.18339847 C0.534181601,2.26355831 0.363205739,2.26355831 0.224373397,2.18339847 C0.0855389723,2.10323862 0,1.95512926 0,1.79481791 C0,1.15363499 0.342039224,0.561097555 0.89736859,0.240474845 C1.45269796,-0.080147865 2.13694307,-0.0801686981 2.69227244,0.240474845 C3.2476018,0.561118388 3.58964103,1.15363499 3.58964103,1.79481791 C3.53145394,2.36495967 3.24035185,2.88570595 2.78512594,3.2338493 C2.5064821,3.51249314 2.24354647,3.77542876 2.24354647,4.03844772 C2.24354647,4.15742395 2.19626556,4.27152938 2.11211825,4.35567462 C2.02797093,4.43982193 1.91379675,4.48710285 1.79482885,4.48710285 L1.79483301,4.48710285 Z" id="Path"></path>
                        <path d="M2.24357981,5.38459643 C2.24357981,5.63240716 2.04265416,5.8333224 1.79485385,5.8333224 C1.54705353,5.8333224 1.34612788,5.63239675 1.34612788,5.38459643 C1.34612788,5.13679612 1.54705353,4.93587047 1.79485385,4.93587047 C2.04265416,4.93587047 2.24357981,5.13679612 2.24357981,5.38459643" id="Path"></path>
                    </g>
                </g>
            </g>
            <g id="id_User" transform="translate(87.000000, 14.000000)">
                <rect id="Icon-Spacing" opacity="0" x="0" y="0" width="14" height="14" rx="5"></rect>
                <g id="Icon/-Add-Member-Copy" transform="translate(1.166667, 1.166667)" fill="#8A99A9" fill-rule="nonzero">
                    <path d="M5.83333333,11.6666667 C4.28621938,11.6666667 2.80252165,11.0520877 1.70857113,9.95809554 C0.614578943,8.86418668 0,7.38040562 0,5.83333333 C0,4.28626105 0.614578943,2.80252165 1.70857113,1.70857113 C2.80247998,0.614578943 4.28626105,0 5.83333333,0 C7.38040562,0 8.86414502,0.614578943 9.95809554,1.70857113 C11.0520877,2.80247998 11.6666667,4.28626105 11.6666667,5.83333333 C11.6648763,7.37986395 11.0497336,8.86247836 9.95615805,9.95601222 C8.86258253,11.0495877 7.37992645,11.66475 5.83347917,11.6665208 L5.83333333,11.6666667 Z M5.75862553,1.38364637 C4.5982915,1.38364637 3.4854522,1.8446149 2.66500466,2.66506243 C1.84455713,3.48558383 1.38362553,4.59846006 1.38362553,5.7586833 C1.38362553,6.91890654 1.84455713,8.03185664 2.66500466,8.85230417 C3.48552606,9.6727517 4.59840229,10.1336833 5.75862553,10.1336833 C6.91884877,10.1336833 8.03179887,9.6727517 8.8522464,8.85230417 C9.67269394,8.03178277 10.1336255,6.91890654 10.1336255,5.7586833 C10.132255,4.59879245 9.67088426,3.48680259 8.85073219,2.66653972 C8.03050624,1.84638764 6.91844252,1.38503132 5.7585886,1.38364637 L5.75862553,1.38364637 Z" id="Shape"></path>
                    <g id="Group" transform="translate(4.038500, 3.141051)">
                        <path d="M1.79483301,4.48710285 C1.67585678,4.48710285 1.56168885,4.43982193 1.47754361,4.35567462 C1.3933963,4.2715273 1.34611538,4.15743437 1.34611538,4.03844772 C1.40430247,3.46830596 1.69548789,2.94755968 2.15063047,2.59941633 C2.42935765,2.32077249 2.69229327,2.05775353 2.69229327,1.79481791 C2.69229327,1.47417437 2.52123407,1.17796815 2.24356731,1.01763596 C1.96590262,0.857318356 1.62378007,0.857318356 1.34611538,1.01763596 C1.0684507,1.17795357 0.897389423,1.47417437 0.897389423,1.79481791 C0.897389423,1.95513551 0.811858784,2.10325321 0.673016026,2.18339847 C0.534181601,2.26355831 0.363205739,2.26355831 0.224373397,2.18339847 C0.0855389723,2.10323862 0,1.95512926 0,1.79481791 C0,1.15363499 0.342039224,0.561097555 0.89736859,0.240474845 C1.45269796,-0.080147865 2.13694307,-0.0801686981 2.69227244,0.240474845 C3.2476018,0.561118388 3.58964103,1.15363499 3.58964103,1.79481791 C3.53145394,2.36495967 3.24035185,2.88570595 2.78512594,3.2338493 C2.5064821,3.51249314 2.24354647,3.77542876 2.24354647,4.03844772 C2.24354647,4.15742395 2.19626556,4.27152938 2.11211825,4.35567462 C2.02797093,4.43982193 1.91379675,4.48710285 1.79482885,4.48710285 L1.79483301,4.48710285 Z" id="Path"></path>
                        <path d="M2.24357981,5.38459643 C2.24357981,5.63240716 2.04265416,5.8333224 1.79485385,5.8333224 C1.54705353,5.8333224 1.34612788,5.63239675 1.34612788,5.38459643 C1.34612788,5.13679612 1.54705353,4.93587047 1.79485385,4.93587047 C2.04265416,4.93587047 2.24357981,5.13679612 2.24357981,5.38459643" id="Path"></path>
                    </g>
                </g>
            </g>
            <g id="Group-15-Copy" opacity="0.497827439" transform="translate(82.000000, 9.000000)" fill="#EFF3F6" fill-rule="nonzero">
                <rect id="Rectangle" opacity="0.3" x="0" y="0" width="24" height="24" rx="6"></rect>
            </g>
        </g>
    </g>
</svg>