<?xml version="1.0" encoding="UTF-8"?>
<svg width="106px" height="42px" viewBox="0 0 106 42" version="1.1" xmlns="http://www.w3.org/2000/svg" xmlns:xlink="http://www.w3.org/1999/xlink">
    <title>Dashboard Copy</title>
    <g id="Side-Panel" stroke="none" stroke-width="1" fill="none" fill-rule="evenodd">
        <g id="Leads-Copy-4" transform="translate(-109.000000, -267.000000)">
            <g id="Business-location" transform="translate(72.000000, 244.000000)">
                <g id="Dashboard-Copy" transform="translate(37.000000, 23.000000)">
                    <g id="Group-15" transform="translate(32.000000, 0.000000)">
                        <rect id="Rectangle" fill="#EFF3F6" x="0" y="0" width="42" height="42" rx="10"></rect>
                        <g id="medical_services_black_24dp-copy" transform="translate(9.000000, 9.000000)">
                            <rect id="Rectangle" x="0" y="0" width="24" height="24"></rect>
                            <g id="Group" transform="translate(2.000000, 2.000000)" fill="#1F3D5A">
                                <path d="M18,4 L14,4 L14,2 C14,0.9 13.1,0 12,0 L8,0 C6.9,0 6,0.9 6,2 L6,4 L2,4 C0.9,4 0,4.9 0,6 L0,18 C0,19.1 0.9,20 2,20 L18,20 C19.1,20 20,19.1 20,18 L20,6 C20,4.9 19.1,4 18,4 Z M8,2 L12,2 L12,4 L8,4 L8,2 Z M18,18 L2,18 L2,6 L18,6 L18,18 Z" id="Shape"></path>
                            </g>
                        </g>
                    </g>
                    <g id="Group-15-Copy" opacity="0.497827439" transform="translate(82.000000, 9.000000)">
                        <rect id="Rectangle" fill="#EFF3F6" opacity="0.3" x="0" y="0" width="24" height="24" rx="6"></rect>
                        <g id="Icon/Select/Location" transform="translate(4.000000, 4.354167)">
                            <g id="Group-57" transform="translate(0.333333, 0.000000)" opacity="0.2">
                                <rect id="Icon-Spacing" x="0" y="0" width="16" height="16" rx="5"></rect>
                            </g>
                            <g id="medical_services_black_24dp-copy-2">
                                <rect id="Rectangle" x="0" y="0" width="16" height="16"></rect>
                                <g id="Group" transform="translate(1.333333, 1.333333)" fill="#EFF3F6" fill-rule="nonzero">
                                    <path d="M12,2.66666667 L9.33333333,2.66666667 L9.33333333,1.33333333 C9.33333333,0.6 8.73333333,0 8,0 L5.33333333,0 C4.6,0 4,0.6 4,1.33333333 L4,2.66666667 L1.33333333,2.66666667 C0.6,2.66666667 0,3.26666667 0,4 L0,12 C0,12.7333333 0.6,13.3333333 1.33333333,13.3333333 L12,13.3333333 C12.7333333,13.3333333 13.3333333,12.7333333 13.3333333,12 L13.3333333,4 C13.3333333,3.26666667 12.7333333,2.66666667 12,2.66666667 Z M5.33333333,1.33333333 L8,1.33333333 L8,2.66666667 L5.33333333,2.66666667 L5.33333333,1.33333333 Z M12,12 L1.33333333,12 L1.33333333,4 L12,4 L12,12 Z" id="Shape"></path>
                                </g>
                            </g>
                        </g>
                    </g>
                    <g id="Group-15-Copy-2" opacity="0.497827439" transform="translate(0.000000, 9.000000)">
                        <rect id="Rectangle" fill="#EFF3F6" opacity="0.3" x="0" y="0" width="24" height="24" rx="6"></rect>
                        <g id="Icon/Select/Location" transform="translate(4.000000, 4.354167)">
                            <g id="Group-57" transform="translate(0.333333, 0.000000)" opacity="0.2">
                                <rect id="Icon-Spacing" x="0" y="0" width="16" height="16" rx="5"></rect>
                            </g>
                            <g id="medical_services_black_24dp-copy-2">
                                <rect id="Rectangle" x="0" y="0" width="16" height="16"></rect>
                                <g id="Group" transform="translate(1.333333, 1.333333)" fill="#EFF3F6" fill-rule="nonzero">
                                    <path d="M12,2.66666667 L9.33333333,2.66666667 L9.33333333,1.33333333 C9.33333333,0.6 8.73333333,0 8,0 L5.33333333,0 C4.6,0 4,0.6 4,1.33333333 L4,2.66666667 L1.33333333,2.66666667 C0.6,2.66666667 0,3.26666667 0,4 L0,12 C0,12.7333333 0.6,13.3333333 1.33333333,13.3333333 L12,13.3333333 C12.7333333,13.3333333 13.3333333,12.7333333 13.3333333,12 L13.3333333,4 C13.3333333,3.26666667 12.7333333,2.66666667 12,2.66666667 Z M5.33333333,1.33333333 L8,1.33333333 L8,2.66666667 L5.33333333,2.66666667 L5.33333333,1.33333333 Z M12,12 L1.33333333,12 L1.33333333,4 L12,4 L12,12 Z" id="Shape"></path>
                                </g>
                            </g>
                        </g>
                    </g>
                </g>
            </g>
        </g>
    </g>
</svg>