<?xml version="1.0" encoding="UTF-8"?>
<svg width="106px" height="42px" viewBox="0 0 106 42" version="1.1" xmlns="http://www.w3.org/2000/svg" xmlns:xlink="http://www.w3.org/1999/xlink">
    <title>Group 4</title>
    <g id="Bin" stroke="none" stroke-width="1" fill="none" fill-rule="evenodd">
        <g id="dashboard_tooltip_hover">
            <g id="Group-15" transform="translate(32.000000, 0.000000)">
                <rect id="Rectangle" fill="#EFF3F6" fill-rule="nonzero" x="0" y="0" width="42" height="42" rx="10"></rect>
                <g id="person_add_black_24dp" transform="translate(7.000000, 9.000000)">
                    <polygon id="Path" points="0 0 25 0 25 24 0 24"></polygon>
                    <polyline id="Line-2" stroke="#5563AB" stroke-width="2" stroke-linecap="square" points="3.5 11.6984987 5.751877 13.5000003 9.37364584 9.40288235"></polyline>
                    <path d="M15.625,12 C17.9270833,12 19.7916667,10.21 19.7916667,8 C19.7916667,5.79 17.9270833,4 15.625,4 C13.3229167,4 11.4583333,5.79 11.4583333,8 C11.4583333,10.21 13.3229167,12 15.625,12 Z M15.625,6 C16.7708333,6 17.7083333,6.9 17.7083333,8 C17.7083333,9.1 16.7708333,10 15.625,10 C14.4791667,10 13.5416667,9.1 13.5416667,8 C13.5416667,6.9 14.4791667,6 15.625,6 Z M15.625,14 C12.84375,14 7.29166667,15.34 7.29166667,18 L7.29166667,20 L23.9583333,20 L23.9583333,18 C23.9583333,15.34 18.40625,14 15.625,14 Z M9.375,18 C9.60416667,17.28 12.8229167,16 15.625,16 C18.4375,16 21.6666667,17.29 21.875,18 L9.375,18 Z M1.5,14.5 L4.5,17.5" id="Shape" fill="#5563AB"></path>
                </g>
            </g>
            <g id="Group-15-Copy" opacity="0.497827439" transform="translate(82.000000, 9.000000)">
                <rect id="Rectangle" fill="#EFF3F6" fill-rule="nonzero" opacity="0.3" x="0" y="0" width="24" height="24" rx="6"></rect>
                <g id="person_add_black_24dp" transform="translate(4.000000, 4.000000)">
                    <polygon id="Path" points="0 0 15.625 0 15.625 15 0 15"></polygon>
                    <polygon id="Line-2" fill="#FFFFFF" fill-rule="nonzero" points="5.80419972 4.99458927 6.74074085 5.82247254 3.6691141 9.29724352 1.30902259 7.40917032 2.0898914 6.43308431 3.52 7.57742647"></polygon>
                    <path d="M9.765625,7.5 C11.2044271,7.5 12.3697917,6.38125 12.3697917,5 C12.3697917,3.61875 11.2044271,2.5 9.765625,2.5 C8.32682292,2.5 7.16145833,3.61875 7.16145833,5 C7.16145833,6.38125 8.32682292,7.5 9.765625,7.5 Z M9.765625,3.75 C10.4817708,3.75 11.0677083,4.3125 11.0677083,5 C11.0677083,5.6875 10.4817708,6.25 9.765625,6.25 C9.04947917,6.25 8.46354167,5.6875 8.46354167,5 C8.46354167,4.3125 9.04947917,3.75 9.765625,3.75 Z M9.765625,8.75 C8.02734375,8.75 4.55729167,9.5875 4.55729167,11.25 L4.55729167,12.5 L14.9739583,12.5 L14.9739583,11.25 C14.9739583,9.5875 11.5039062,8.75 9.765625,8.75 Z M5.859375,11.25 C6.00260417,10.8 8.01432292,10 9.765625,10 C11.5234375,10 13.5416667,10.80625 13.671875,11.25 L5.859375,11.25 Z M0.9375,9.0625 L2.8125,10.9375" id="Shape" fill="#FFFFFF"></path>
                </g>
            </g>
            <g id="Group-15-Copy-2" opacity="0.497827439" transform="translate(0.000000, 9.000000)">
                <rect id="Rectangle" fill="#EFF3F6" fill-rule="nonzero" opacity="0.3" x="0" y="0" width="24" height="24" rx="6"></rect>
                <g id="person_add_black_24dp" transform="translate(3.000000, 4.000000)">
                    <polygon id="Path" points="0 0 15.625 0 15.625 15 0 15"></polygon>
                    <polygon id="Line-2" fill="#FFFFFF" fill-rule="nonzero" points="5.80419972 4.99458927 6.74074085 5.82247254 3.6691141 9.29724352 1.30902259 7.40917032 2.0898914 6.43308431 3.52 7.57742647"></polygon>
                    <path d="M9.765625,7.5 C11.2044271,7.5 12.3697917,6.38125 12.3697917,5 C12.3697917,3.61875 11.2044271,2.5 9.765625,2.5 C8.32682292,2.5 7.16145833,3.61875 7.16145833,5 C7.16145833,6.38125 8.32682292,7.5 9.765625,7.5 Z M9.765625,3.75 C10.4817708,3.75 11.0677083,4.3125 11.0677083,5 C11.0677083,5.6875 10.4817708,6.25 9.765625,6.25 C9.04947917,6.25 8.46354167,5.6875 8.46354167,5 C8.46354167,4.3125 9.04947917,3.75 9.765625,3.75 Z M9.765625,8.75 C8.02734375,8.75 4.55729167,9.5875 4.55729167,11.25 L4.55729167,12.5 L14.9739583,12.5 L14.9739583,11.25 C14.9739583,9.5875 11.5039062,8.75 9.765625,8.75 Z M5.859375,11.25 C6.00260417,10.8 8.01432292,10 9.765625,10 C11.5234375,10 13.5416667,10.80625 13.671875,11.25 L5.859375,11.25 Z M0.9375,9.0625 L2.8125,10.9375" id="Shape" fill="#FFFFFF"></path>
                </g>
            </g>
        </g>
    </g>
</svg>