<?xml version="1.0" encoding="UTF-8"?>
<svg width="106px" height="42px" viewBox="0 0 106 42" version="1.1" xmlns="http://www.w3.org/2000/svg" xmlns:xlink="http://www.w3.org/1999/xlink">
    <title>Dashboard Copy</title>
    <g id="Side-Panel" stroke="none" stroke-width="1" fill="none" fill-rule="evenodd">
        <g id="Leads-Copy-5" transform="translate(-119.000000, -374.000000)">
            <g id="Business-location" transform="translate(82.000000, 351.000000)">
                <g id="Dashboard-Copy" transform="translate(37.000000, 23.000000)">
                    <g id="Group-15" transform="translate(32.000000, 0.000000)">
                        <rect id="Rectangle" fill="#EFF3F6" x="0" y="0" width="42" height="42" rx="10"></rect>
                        <g id="portrait_black_24dp" transform="translate(9.000000, 9.000000)">
                            <polygon id="Path" points="0 0 24 0 24 24 0 24"></polygon>
                            <path d="M12,12 C13.65,12 15,10.65 15,9 C15,7.35 13.65,6 12,6 C10.35,6 9,7.35 9,9 C9,10.65 10.35,12 12,12 Z M12,8 C12.55,8 13,8.45 13,9 C13,9.55 12.55,10 12,10 C11.45,10 11,9.55 11,9 C11,8.45 11.45,8 12,8 Z M18,16.58 C18,14.08 14.03,13 12,13 C9.97,13 6,14.08 6,16.58 L6,18 L18,18 L18,16.58 Z M8.48,16 C9.22,15.49 10.71,15 12,15 C13.29,15 14.78,15.49 15.52,16 L8.48,16 Z M19,3 L5,3 C3.89,3 3,3.9 3,5 L3,19 C3,20.1 3.89,21 5,21 L19,21 C20.1,21 21,20.1 21,19 L21,5 C21,3.9 20.1,3 19,3 Z M19,19 L5,19 L5,5 L19,5 L19,19 Z" id="Shape" fill="#1F3D5A"></path>
                        </g>
                    </g>
                    <g id="Group-15-Copy" opacity="0.497827439" transform="translate(82.000000, 9.000000)">
                        <rect id="Rectangle" fill="#EFF3F6" opacity="0.3" x="0" y="0" width="24" height="24" rx="6"></rect>
                        <g id="portrait_black_24dp" transform="translate(4.000000, 4.354167)">
                            <polygon id="Path" points="0 0 16 0 16 16 0 16"></polygon>
                            <path d="M8,8 C9.1,8 10,7.1 10,6 C10,4.9 9.1,4 8,4 C6.9,4 6,4.9 6,6 C6,7.1 6.9,8 8,8 Z M8,5.33333333 C8.36666667,5.33333333 8.66666667,5.63333333 8.66666667,6 C8.66666667,6.36666667 8.36666667,6.66666667 8,6.66666667 C7.63333333,6.66666667 7.33333333,6.36666667 7.33333333,6 C7.33333333,5.63333333 7.63333333,5.33333333 8,5.33333333 Z M12,11.0533333 C12,9.38666667 9.35333333,8.66666667 8,8.66666667 C6.64666667,8.66666667 4,9.38666667 4,11.0533333 L4,12 L12,12 L12,11.0533333 Z M5.65333333,10.6666667 C6.14666667,10.3266667 7.14,10 8,10 C8.86,10 9.85333333,10.3266667 10.3466667,10.6666667 L5.65333333,10.6666667 Z M12.6666667,2 L3.33333333,2 C2.59333333,2 2,2.6 2,3.33333333 L2,12.6666667 C2,13.4 2.59333333,14 3.33333333,14 L12.6666667,14 C13.4,14 14,13.4 14,12.6666667 L14,3.33333333 C14,2.6 13.4,2 12.6666667,2 Z M12.6666667,12.6666667 L3.33333333,12.6666667 L3.33333333,3.33333333 L12.6666667,3.33333333 L12.6666667,12.6666667 Z" id="Shape" fill="#EFF3F6" fill-rule="nonzero"></path>
                        </g>
                    </g>
                    <g id="Group-15-Copy-2" opacity="0.497827439" transform="translate(0.000000, 9.000000)">
                        <rect id="Rectangle" fill="#EFF3F6" opacity="0.3" x="0" y="0" width="24" height="24" rx="6"></rect>
                        <g id="portrait_black_24dp" transform="translate(4.000000, 4.354167)">
                            <polygon id="Path" points="0 0 16 0 16 16 0 16"></polygon>
                            <path d="M8,8 C9.1,8 10,7.1 10,6 C10,4.9 9.1,4 8,4 C6.9,4 6,4.9 6,6 C6,7.1 6.9,8 8,8 Z M8,5.33333333 C8.36666667,5.33333333 8.66666667,5.63333333 8.66666667,6 C8.66666667,6.36666667 8.36666667,6.66666667 8,6.66666667 C7.63333333,6.66666667 7.33333333,6.36666667 7.33333333,6 C7.33333333,5.63333333 7.63333333,5.33333333 8,5.33333333 Z M12,11.0533333 C12,9.38666667 9.35333333,8.66666667 8,8.66666667 C6.64666667,8.66666667 4,9.38666667 4,11.0533333 L4,12 L12,12 L12,11.0533333 Z M5.65333333,10.6666667 C6.14666667,10.3266667 7.14,10 8,10 C8.86,10 9.85333333,10.3266667 10.3466667,10.6666667 L5.65333333,10.6666667 Z M12.6666667,2 L3.33333333,2 C2.59333333,2 2,2.6 2,3.33333333 L2,12.6666667 C2,13.4 2.59333333,14 3.33333333,14 L12.6666667,14 C13.4,14 14,13.4 14,12.6666667 L14,3.33333333 C14,2.6 13.4,2 12.6666667,2 Z M12.6666667,12.6666667 L3.33333333,12.6666667 L3.33333333,3.33333333 L12.6666667,3.33333333 L12.6666667,12.6666667 Z" id="Shape" fill="#EFF3F6" fill-rule="nonzero"></path>
                        </g>
                    </g>
                </g>
            </g>
        </g>
    </g>
</svg>