<?xml version="1.0" encoding="UTF-8"?>
<svg width="24px" height="24px" viewBox="0 0 24 24" version="1.1" xmlns="http://www.w3.org/2000/svg" xmlns:xlink="http://www.w3.org/1999/xlink">
    <title>Icon/Sidenav/Active</title>
    <g id="Icon/Sidenav/Active" stroke="none" stroke-width="1" fill="none" fill-rule="evenodd">
        <path d="M23.6755729,9.97676701 L21.3977405,9.75907144 C21.1641173,8.81394722 20.7712177,7.89008575 20.2349402,7.00870122 L21.6844478,5.25651499 C21.8065678,5.10784567 21.795951,4.8901501 21.6632093,4.75742299 L19.2420233,2.33623698 C19.1039708,2.19818447 18.8915861,2.19287849 18.7429313,2.3149985 L16.9907451,3.76450614 C16.1518375,3.24415139 15.2120047,2.84593608 14.2403749,2.60699718 L14.0226793,0.334504749 C14.0067507,0.143358485 13.8421498,0 13.6510084,0 L10.3484379,0 C10.1572916,0 9.99800063,0.143358485 9.97676701,0.334504749 L9.75907144,2.60699718 C8.78739306,2.84593122 7.8476088,3.24415139 7.00870122,3.76450614 L5.25651499,2.3149985 C5.10784567,2.19287849 4.8901501,2.2034953 4.75742299,2.33623698 L2.34152839,4.75742299 C2.20347588,4.8954755 2.19816991,5.10786024 2.32028992,5.25651499 L3.76979755,7.00870122 C3.23352002,7.89008575 2.84593608,8.80865581 2.60699718,9.75907144 L0.334504749,9.97676701 C0.143358485,9.99269563 1.77635684e-15,10.1572965 1.77635684e-15,10.3484379 L1.77635684e-15,13.7784393 C1.77635684e-15,13.9695855 0.143358485,14.1288765 0.334504749,14.1501101 L2.60699718,14.3678057 C2.84593122,15.3394841 3.24415139,16.2792683 3.76450614,17.1181759 L2.3149985,18.8703622 C2.19287849,19.0190315 2.2034953,19.236727 2.33623698,19.3694542 L4.75742299,21.7906402 C4.8954755,21.9286927 5.10786024,21.9339987 5.25651499,21.8118786 L7.00870122,20.362371 C7.89008575,20.8986485 8.80865581,21.2862325 9.75907144,21.5251714 L9.97676701,23.8030038 C9.99269563,23.99415 10.1572965,24.1375085 10.3484379,24.1375085 L13.6510084,24.1375085 C13.8421547,24.1375085 14.0014457,23.99415 14.0226793,23.8030038 L14.2403749,21.5251714 C15.1854991,21.2915482 16.1093606,20.8986485 16.9907451,20.362371 L18.7429313,21.8118786 C18.8916006,21.9339987 19.1092962,21.9233818 19.2420233,21.7906402 L21.6632093,19.3694542 C21.8012618,19.2314016 21.8065678,19.0190169 21.6844478,18.8703622 L20.2349402,17.1181759 C20.7552949,16.2792683 21.1535102,15.3394355 21.3924491,14.3678057 L23.6649416,14.1501101 C23.8560878,14.1341815 23.9994463,13.9695807 23.9994463,13.7784393 L23.9994463,10.3484379 C24.0100655,10.1572916 23.8667046,9.99800063 23.6755584,9.97676701 L23.6755729,9.97676701 Z M23.2667311,13.438614 L21.0632212,13.6509987 C20.9039351,13.6669273 20.7711934,13.7837404 20.7340273,13.9430265 C20.5057149,15.0102416 20.0650275,16.0456112 19.4703503,16.9376756 C19.3800855,17.0757281 19.3907072,17.2562527 19.4915887,17.3783727 L20.8986194,19.0774506 L18.9606026,21.0207588 L17.2615247,19.6137282 C17.1340939,19.5128466 16.9588752,19.502225 16.8208276,19.5871798 C15.865072,20.2031198 14.8562566,20.6278893 13.8208871,20.8508569 C13.661601,20.8827146 13.5447869,21.0154538 13.5288593,21.1800508 L13.3164745,23.3835607 L10.6881952,23.3835607 L10.4758105,21.1800508 C10.4598819,21.0207647 10.3430688,20.888023 10.1837827,20.8508569 C9.14841313,20.6278505 8.13959776,20.2030713 7.18384217,19.5871798 C7.04578966,19.4969151 6.87057589,19.5075368 6.74314505,19.6137282 L5.04406714,21.0207588 L3.10605034,19.082742 L4.51308103,17.3836641 C4.61927339,17.2562333 4.62458423,17.0757038 4.5343195,16.942967 C3.93964223,16.0509511 3.50424138,15.0155816 3.27064244,13.9483179 C3.23878473,13.7890318 3.10604548,13.6722178 2.94144853,13.6562901 L0.737938662,13.4439054 L0.737938662,10.6881952 L2.94144853,10.4758105 C3.10073465,10.4598819 3.23347633,10.3430688 3.27064244,10.1837827 C3.49364885,9.14841313 3.91842803,8.13959776 4.5343195,7.18384217 C4.62458423,7.04578966 4.61396256,6.87057589 4.50777116,6.74314505 L3.10074048,5.04406714 L5.04938866,3.10605034 L6.74846656,4.51308103 C6.87589741,4.61927339 7.05642686,4.62458423 7.18916368,4.5343195 C8.08117958,3.93964223 9.11654911,3.50424138 10.1838128,3.27064244 C10.3430989,3.23878473 10.4599129,3.10604548 10.4758406,2.94144853 L10.6882253,0.737938662 L13.3165046,0.737938662 L13.5288894,2.94144853 C13.544818,3.10073465 13.6616311,3.23347633 13.8209172,3.27064244 C14.8881323,3.49895482 15.9235018,3.93964223 16.8155663,4.5343195 C16.9536188,4.62458423 17.1341434,4.61396256 17.2562634,4.51308103 L18.9553413,3.10605034 L20.8933581,5.04406714 L19.4863274,6.74314505 C19.3854459,6.87057589 19.3748242,7.04579452 19.4597791,7.18384217 C20.0757191,8.13959776 20.5004886,9.14841313 20.7234561,10.1837827 C20.7553138,10.3430688 20.8880531,10.4598828 21.05265,10.4758105 L23.2561599,10.6881952 L23.2667311,13.438614 Z" id="Shape" stroke="#1F3D5A" stroke-width="0.5" fill="#1F3D5A" fill-rule="nonzero"></path>
        <path d="M12.0524237,4.78923944 C8.04366782,4.78923944 4.77842845,8.054673 4.77842845,12.0632347 C4.77842845,16.0717964 8.04386201,19.3372299 12.0524237,19.3372299 C16.0609854,19.3372299 19.3264189,16.0717964 19.3264189,12.0632347 C19.3264189,8.054673 16.0609854,4.78923944 12.0524237,4.78923944 Z M12.0524237,18.5944902 C8.45251451,18.5944902 5.52165367,15.6635808 5.52165367,12.0637201 C5.52165367,8.4638595 8.45256306,5.53295011 12.0524237,5.53295011 C15.6522843,5.53295011 18.5831937,8.4638595 18.5831937,12.0637201 C18.5831937,15.6635808 15.6522843,18.5944902 12.0524237,18.5944902 Z" id="Shape" stroke="#1F3D5A" stroke-width="0.5" fill="#1F3D5A" fill-rule="nonzero"></path>
        <path d="M12.0208694,8.93062047 C12.668655,8.93062047 13.1943011,8.40497431 13.1943011,7.75718873 L13.1943011,7.41737315 C13.1943011,6.76958756 12.668655,6.2439414 12.0208694,6.2439414 C11.3730838,6.2439414 10.8474376,6.76958756 10.8474376,7.41737315 L10.8474376,7.75718873 C10.8474376,8.39963436 11.3730838,8.93062047 12.0208694,8.93062047 Z M11.4845919,7.41208173 C11.4845919,7.1147431 11.7235259,6.8758042 12.0208694,6.8758042 C12.3182129,6.8758042 12.5571469,7.11473824 12.5571469,7.41208173 L12.5571469,7.75189731 C12.5571469,8.04923595 12.3182129,8.28817484 12.0208694,8.28817484 C11.7235259,8.28817484 11.4845919,8.0492408 11.4845919,7.75189731 L11.4845919,7.41208173 Z" id="Shape" stroke="#1F3D5A" stroke-width="0.5" fill="#1F3D5A" fill-rule="nonzero"></path>
        <path d="M12.5781669,9.08981922 L11.5268746,9.08981922 C10.4702423,9.08981922 9.61541198,9.94467871 9.61541198,11.001311 L9.61541198,13.0136503 C9.61541198,13.2260351 9.69505504,13.4224922 9.84903519,13.5711421 C9.99770451,13.7198114 10.1888508,13.7994544 10.3959441,13.8047653 C10.4702763,13.8047653 10.5393026,13.794146 10.6083288,13.7782169 L10.7145212,17.0861274 C10.7304498,17.5321354 11.0968137,17.887898 11.5427974,17.887898 C11.7339437,17.887898 11.9144683,17.8188718 12.0525208,17.7126794 C12.1958793,17.8241826 12.3710979,17.887898 12.5622442,17.887898 C13.0135629,17.887898 13.3745976,17.5374608 13.3905204,17.0861274 L13.4967127,13.7782169 C13.5551173,13.7941455 13.6188327,13.8047653 13.6825482,13.8047653 L13.6931674,13.8047653 C13.8949305,13.8047653 14.0913876,13.7251222 14.2400763,13.5764529 C14.3940565,13.4224727 14.4843408,13.210088 14.4843408,12.9976984 L14.4843408,11.0012819 C14.4896262,9.94998955 13.629486,9.08981922 12.5781451,9.08981922 L12.5781669,9.08981922 Z M12.5675477,17.2507623 C12.4613553,17.2507623 12.3764014,17.1658084 12.3764014,17.059616 L12.3764014,13.6189832 L11.7392472,13.6189832 L11.7392472,17.059616 C11.7392472,17.1658084 11.6542933,17.2507623 11.548101,17.2507623 C11.4419086,17.2507623 11.3569547,17.1711192 11.3569547,17.0649268 L11.224213,12.9871398 L12.8967368,12.9871398 L12.7639951,17.0649268 C12.7533759,17.1711192 12.6684195,17.2507623 12.567538,17.2507623 L12.5675477,17.2507623 Z M13.8524875,12.9977761 C13.8524875,13.0455629 13.831249,13.0880408 13.7993889,13.1252069 C13.7834603,13.1411355 13.7462903,13.1676839 13.6985074,13.1676839 C13.6454087,13.1676839 13.6082426,13.1411355 13.592315,13.1252069 C13.5763873,13.1092783 13.549838,13.0721083 13.549838,13.0190145 L13.549838,11.2615369 L12.9126838,11.2615369 L12.9126838,12.3553062 L11.1976831,12.3553062 L11.1976831,11.2615369 L10.5605289,11.2615369 L10.5605289,13.0030918 C10.5605289,13.0508786 10.5392904,13.0933565 10.5074303,13.1305226 C10.4915017,13.1464512 10.4543317,13.1729996 10.4065488,13.1729996 C10.3534502,13.1729996 10.316284,13.1464512 10.3003564,13.1305226 C10.2844288,13.114594 10.2578795,13.077424 10.2578795,13.0243302 L10.2578795,11.0013595 C10.2578795,10.3004656 10.831294,9.72705111 11.5321879,9.72705111 L12.5834802,9.72705111 C13.2843741,9.72705111 13.8577886,10.3004656 13.8577886,11.0013595 L13.8524875,12.9977761 Z" id="Shape" stroke="#1F3D5A" stroke-width="0.2" fill="#1F3D5A" fill-rule="nonzero"></path>
    </g>
</svg>