<?xml version="1.0" encoding="UTF-8"?>
<svg width="106px" height="42px" viewBox="0 0 106 42" version="1.1" xmlns="http://www.w3.org/2000/svg" xmlns:xlink="http://www.w3.org/1999/xlink">
    <title>Dashboard Copy</title>
    <g id="Side-Panel" stroke="none" stroke-width="1" fill="none" fill-rule="evenodd">
        <g id="Leads-Copy-2" transform="translate(-124.000000, -317.000000)">
            <g id="Business-location" transform="translate(87.000000, 294.000000)">
                <g id="Dashboard-Copy" transform="translate(37.000000, 23.000000)">
                    <g id="Group-15" transform="translate(32.000000, 0.000000)">
                        <rect id="Rectangle" fill="#EFF3F6" x="0" y="0" width="42" height="42" rx="10"></rect>
                        <g id="Dashboard-Copy-2" transform="translate(9.000000, 9.000000)" fill="#1F3D5A" fill-rule="nonzero" stroke="#1F3D5A">
                            <path d="M23.6755729,9.97676701 L21.3977405,9.75907144 C21.1641173,8.81394722 20.7712177,7.89008575 20.2349402,7.00870122 L21.6844478,5.25651499 C21.8065678,5.10784567 21.795951,4.8901501 21.6632093,4.75742299 L19.2420233,2.33623698 C19.1039708,2.19818447 18.8915861,2.19287849 18.7429313,2.3149985 L16.9907451,3.76450614 C16.1518375,3.24415139 15.2120047,2.84593608 14.2403749,2.60699718 L14.0226793,0.334504749 C14.0067507,0.143358485 13.8421498,0 13.6510084,0 L10.3484379,0 C10.1572916,0 9.99800063,0.143358485 9.97676701,0.334504749 L9.75907144,2.60699718 C8.78739306,2.84593122 7.8476088,3.24415139 7.00870122,3.76450614 L5.25651499,2.3149985 C5.10784567,2.19287849 4.8901501,2.2034953 4.75742299,2.33623698 L2.34152839,4.75742299 C2.20347588,4.8954755 2.19816991,5.10786024 2.32028992,5.25651499 L3.76979755,7.00870122 C3.23352002,7.89008575 2.84593608,8.80865581 2.60699718,9.75907144 L0.334504749,9.97676701 C0.143358485,9.99269563 1.77635684e-15,10.1572965 1.77635684e-15,10.3484379 L1.77635684e-15,13.7784393 C1.77635684e-15,13.9695855 0.143358485,14.1288765 0.334504749,14.1501101 L2.60699718,14.3678057 C2.84593122,15.3394841 3.24415139,16.2792683 3.76450614,17.1181759 L2.3149985,18.8703622 C2.19287849,19.0190315 2.2034953,19.236727 2.33623698,19.3694542 L4.75742299,21.7906402 C4.8954755,21.9286927 5.10786024,21.9339987 5.25651499,21.8118786 L7.00870122,20.362371 C7.89008575,20.8986485 8.80865581,21.2862325 9.75907144,21.5251714 L9.97676701,23.8030038 C9.99269563,23.99415 10.1572965,24.1375085 10.3484379,24.1375085 L13.6510084,24.1375085 C13.8421547,24.1375085 14.0014457,23.99415 14.0226793,23.8030038 L14.2403749,21.5251714 C15.1854991,21.2915482 16.1093606,20.8986485 16.9907451,20.362371 L18.7429313,21.8118786 C18.8916006,21.9339987 19.1092962,21.9233818 19.2420233,21.7906402 L21.6632093,19.3694542 C21.8012618,19.2314016 21.8065678,19.0190169 21.6844478,18.8703622 L20.2349402,17.1181759 C20.7552949,16.2792683 21.1535102,15.3394355 21.3924491,14.3678057 L23.6649416,14.1501101 C23.8560878,14.1341815 23.9994463,13.9695807 23.9994463,13.7784393 L23.9994463,10.3484379 C24.0100655,10.1572916 23.8667046,9.99800063 23.6755584,9.97676701 L23.6755729,9.97676701 Z M23.2667311,13.438614 L21.0632212,13.6509987 C20.9039351,13.6669273 20.7711934,13.7837404 20.7340273,13.9430265 C20.5057149,15.0102416 20.0650275,16.0456112 19.4703503,16.9376756 C19.3800855,17.0757281 19.3907072,17.2562527 19.4915887,17.3783727 L20.8986194,19.0774506 L18.9606026,21.0207588 L17.2615247,19.6137282 C17.1340939,19.5128466 16.9588752,19.502225 16.8208276,19.5871798 C15.865072,20.2031198 14.8562566,20.6278893 13.8208871,20.8508569 C13.661601,20.8827146 13.5447869,21.0154538 13.5288593,21.1800508 L13.3164745,23.3835607 L10.6881952,23.3835607 L10.4758105,21.1800508 C10.4598819,21.0207647 10.3430688,20.888023 10.1837827,20.8508569 C9.14841313,20.6278505 8.13959776,20.2030713 7.18384217,19.5871798 C7.04578966,19.4969151 6.87057589,19.5075368 6.74314505,19.6137282 L5.04406714,21.0207588 L3.10605034,19.082742 L4.51308103,17.3836641 C4.61927339,17.2562333 4.62458423,17.0757038 4.5343195,16.942967 C3.93964223,16.0509511 3.50424138,15.0155816 3.27064244,13.9483179 C3.23878473,13.7890318 3.10604548,13.6722178 2.94144853,13.6562901 L0.737938662,13.4439054 L0.737938662,10.6881952 L2.94144853,10.4758105 C3.10073465,10.4598819 3.23347633,10.3430688 3.27064244,10.1837827 C3.49364885,9.14841313 3.91842803,8.13959776 4.5343195,7.18384217 C4.62458423,7.04578966 4.61396256,6.87057589 4.50777116,6.74314505 L3.10074048,5.04406714 L5.04938866,3.10605034 L6.74846656,4.51308103 C6.87589741,4.61927339 7.05642686,4.62458423 7.18916368,4.5343195 C8.08117958,3.93964223 9.11654911,3.50424138 10.1838128,3.27064244 C10.3430989,3.23878473 10.4599129,3.10604548 10.4758406,2.94144853 L10.6882253,0.737938662 L13.3165046,0.737938662 L13.5288894,2.94144853 C13.544818,3.10073465 13.6616311,3.23347633 13.8209172,3.27064244 C14.8881323,3.49895482 15.9235018,3.93964223 16.8155663,4.5343195 C16.9536188,4.62458423 17.1341434,4.61396256 17.2562634,4.51308103 L18.9553413,3.10605034 L20.8933581,5.04406714 L19.4863274,6.74314505 C19.3854459,6.87057589 19.3748242,7.04579452 19.4597791,7.18384217 C20.0757191,8.13959776 20.5004886,9.14841313 20.7234561,10.1837827 C20.7553138,10.3430688 20.8880531,10.4598828 21.05265,10.4758105 L23.2561599,10.6881952 L23.2667311,13.438614 Z" id="Shape" stroke-width="0.5"></path>
                            <path d="M12.0524237,4.78923944 C8.04366782,4.78923944 4.77842845,8.054673 4.77842845,12.0632347 C4.77842845,16.0717964 8.04386201,19.3372299 12.0524237,19.3372299 C16.0609854,19.3372299 19.3264189,16.0717964 19.3264189,12.0632347 C19.3264189,8.054673 16.0609854,4.78923944 12.0524237,4.78923944 Z M12.0524237,18.5944902 C8.45251451,18.5944902 5.52165367,15.6635808 5.52165367,12.0637201 C5.52165367,8.4638595 8.45256306,5.53295011 12.0524237,5.53295011 C15.6522843,5.53295011 18.5831937,8.4638595 18.5831937,12.0637201 C18.5831937,15.6635808 15.6522843,18.5944902 12.0524237,18.5944902 Z" id="Shape" stroke-width="0.5"></path>
                            <path d="M12.0208694,8.93062047 C12.668655,8.93062047 13.1943011,8.40497431 13.1943011,7.75718873 L13.1943011,7.41737315 C13.1943011,6.76958756 12.668655,6.2439414 12.0208694,6.2439414 C11.3730838,6.2439414 10.8474376,6.76958756 10.8474376,7.41737315 L10.8474376,7.75718873 C10.8474376,8.39963436 11.3730838,8.93062047 12.0208694,8.93062047 Z M11.4845919,7.41208173 C11.4845919,7.1147431 11.7235259,6.8758042 12.0208694,6.8758042 C12.3182129,6.8758042 12.5571469,7.11473824 12.5571469,7.41208173 L12.5571469,7.75189731 C12.5571469,8.04923595 12.3182129,8.28817484 12.0208694,8.28817484 C11.7235259,8.28817484 11.4845919,8.0492408 11.4845919,7.75189731 L11.4845919,7.41208173 Z" id="Shape" stroke-width="0.5"></path>
                            <path d="M12.5781669,9.08981922 L11.5268746,9.08981922 C10.4702423,9.08981922 9.61541198,9.94467871 9.61541198,11.001311 L9.61541198,13.0136503 C9.61541198,13.2260351 9.69505504,13.4224922 9.84903519,13.5711421 C9.99770451,13.7198114 10.1888508,13.7994544 10.3959441,13.8047653 C10.4702763,13.8047653 10.5393026,13.794146 10.6083288,13.7782169 L10.7145212,17.0861274 C10.7304498,17.5321354 11.0968137,17.887898 11.5427974,17.887898 C11.7339437,17.887898 11.9144683,17.8188718 12.0525208,17.7126794 C12.1958793,17.8241826 12.3710979,17.887898 12.5622442,17.887898 C13.0135629,17.887898 13.3745976,17.5374608 13.3905204,17.0861274 L13.4967127,13.7782169 C13.5551173,13.7941455 13.6188327,13.8047653 13.6825482,13.8047653 L13.6931674,13.8047653 C13.8949305,13.8047653 14.0913876,13.7251222 14.2400763,13.5764529 C14.3940565,13.4224727 14.4843408,13.210088 14.4843408,12.9976984 L14.4843408,11.0012819 C14.4896262,9.94998955 13.629486,9.08981922 12.5781451,9.08981922 L12.5781669,9.08981922 Z M12.5675477,17.2507623 C12.4613553,17.2507623 12.3764014,17.1658084 12.3764014,17.059616 L12.3764014,13.6189832 L11.7392472,13.6189832 L11.7392472,17.059616 C11.7392472,17.1658084 11.6542933,17.2507623 11.548101,17.2507623 C11.4419086,17.2507623 11.3569547,17.1711192 11.3569547,17.0649268 L11.224213,12.9871398 L12.8967368,12.9871398 L12.7639951,17.0649268 C12.7533759,17.1711192 12.6684195,17.2507623 12.567538,17.2507623 L12.5675477,17.2507623 Z M13.8524875,12.9977761 C13.8524875,13.0455629 13.831249,13.0880408 13.7993889,13.1252069 C13.7834603,13.1411355 13.7462903,13.1676839 13.6985074,13.1676839 C13.6454087,13.1676839 13.6082426,13.1411355 13.592315,13.1252069 C13.5763873,13.1092783 13.549838,13.0721083 13.549838,13.0190145 L13.549838,11.2615369 L12.9126838,11.2615369 L12.9126838,12.3553062 L11.1976831,12.3553062 L11.1976831,11.2615369 L10.5605289,11.2615369 L10.5605289,13.0030918 C10.5605289,13.0508786 10.5392904,13.0933565 10.5074303,13.1305226 C10.4915017,13.1464512 10.4543317,13.1729996 10.4065488,13.1729996 C10.3534502,13.1729996 10.316284,13.1464512 10.3003564,13.1305226 C10.2844288,13.114594 10.2578795,13.077424 10.2578795,13.0243302 L10.2578795,11.0013595 C10.2578795,10.3004656 10.831294,9.72705111 11.5321879,9.72705111 L12.5834802,9.72705111 C13.2843741,9.72705111 13.8577886,10.3004656 13.8577886,11.0013595 L13.8524875,12.9977761 Z" id="Shape" stroke-width="0.2"></path>
                        </g>
                    </g>
                    <g id="Group-15-Copy" opacity="0.497827439" transform="translate(82.000000, 9.000000)" fill="#EFF3F6">
                        <rect id="Rectangle" opacity="0.3" x="0" y="0" width="24" height="24" rx="6"></rect>
                        <g id="Icon/Select/Location" transform="translate(4.000000, 4.354167)" fill-rule="nonzero" stroke="#EFF3F6">
                            <path d="M15.7837153,6.65117801 L14.2651604,6.50604763 C14.1094116,5.87596481 13.8474785,5.26005716 13.4899601,4.67246748 L14.4562985,3.50434333 C14.5377119,3.40523045 14.530634,3.26010007 14.4421395,3.17161533 L12.8280155,1.55749132 C12.7359805,1.46545631 12.5943907,1.46191899 12.4952875,1.54333233 L11.3271634,2.50967076 C10.7678917,2.16276759 10.1413365,1.89729072 9.49358324,1.73799812 L9.34845286,0.223003166 C9.33783378,0.0955723231 9.22809989,0 9.10067228,0 L6.89895859,0 C6.77152774,0 6.66533375,0.0955723231 6.65117801,0.223003166 L6.50604763,1.73799812 C5.85826204,1.89728748 5.2317392,2.16276759 4.67246748,2.50967076 L3.50434333,1.54333233 C3.40523045,1.46191899 3.26010007,1.46899687 3.17161533,1.55749132 L1.56101893,3.17161533 C1.46898392,3.26365033 1.4654466,3.40524016 1.54685994,3.50434333 L2.51319837,4.67246748 C2.15568001,5.26005716 1.89729072,5.8724372 1.73799812,6.50604763 L0.223003166,6.65117801 C0.0955723231,6.66179708 -8.8817842e-16,6.77153098 -8.8817842e-16,6.89895859 L-8.8817842e-16,9.18562618 C-8.8817842e-16,9.31305702 0.0955723231,9.41925101 0.223003166,9.43340675 L1.73799812,9.57853713 C1.89728748,10.2263227 2.16276759,10.8528456 2.50967076,11.4121173 L1.54333233,12.5802414 C1.46191899,12.6793543 1.46899687,12.8244847 1.55749132,12.9129694 L3.17161533,14.5270934 C3.26365033,14.6191284 3.40524016,14.6226658 3.50434333,14.5412524 L4.67246748,13.574914 C5.26005716,13.9324324 5.8724372,14.1908217 6.50604763,14.3501143 L6.65117801,15.8686692 C6.66179708,15.9961 6.77153098,16.0916723 6.89895859,16.0916723 L9.10067228,16.0916723 C9.22810312,16.0916723 9.33429711,15.9961 9.34845286,15.8686692 L9.49358324,14.3501143 C10.1236661,14.1943654 10.7395737,13.9324324 11.3271634,13.574914 L12.4952875,14.5412524 C12.5944004,14.6226658 12.7395308,14.6155879 12.8280155,14.5270934 L14.4421395,12.9129694 C14.5341746,12.8209344 14.5377119,12.6793446 14.4562985,12.5802414 L13.4899601,11.4121173 C13.8368633,10.8528456 14.1023401,10.2262904 14.2616327,9.57853713 L15.7766277,9.43340675 C15.9040585,9.42278768 15.9996309,9.31305378 15.9996309,9.18562618 L15.9996309,6.89895859 C16.0067104,6.77152774 15.9111364,6.66533375 15.7837056,6.65117801 L15.7837153,6.65117801 Z M15.5111541,8.95907598 L14.0421475,9.10066581 C13.9359567,9.11128488 13.8474623,9.18916026 13.8226849,9.29535101 C13.6704766,10.0068277 13.376685,10.6970741 12.9802335,11.2917837 C12.920057,11.3838187 12.9271381,11.5041685 12.9943925,11.5855818 L13.9324129,12.7183004 L12.6404017,14.0138392 L11.5076831,13.0758188 C11.4227292,13.0085644 11.3059168,13.0014833 11.2138851,13.0581199 C10.5767147,13.4687466 9.90417108,13.7519262 9.21392472,13.9005713 C9.10773397,13.9218097 9.02985795,14.0103026 9.01923952,14.1200339 L8.8776497,15.5890404 L7.12546347,15.5890404 L6.98387364,14.1200339 C6.97325457,14.0138431 6.89537919,13.9253487 6.78918844,13.9005713 C6.09894209,13.7519003 5.42639851,13.4687142 4.78922811,13.0581199 C4.69719311,12.9979434 4.58038393,13.0050245 4.49543003,13.0758188 L3.36271143,14.0138392 L2.07070023,12.721828 L3.00872068,11.5891094 C3.0795156,11.5041555 3.08305615,11.3838026 3.02287967,11.2953113 C2.62642815,10.7006341 2.33616092,10.0103877 2.1804283,9.29887862 C2.15918982,9.19268787 2.07069699,9.11481185 1.96096568,9.10419342 L0.491959108,8.96260359 L0.491959108,7.12546347 L1.96096568,6.98387364 C2.06715643,6.97325457 2.15565088,6.89537919 2.1804283,6.78918844 C2.32909923,6.09894209 2.61228535,5.42639851 3.02287967,4.78922811 C3.08305615,4.69719311 3.07597504,4.58038393 3.00518078,4.49543003 L2.06716032,3.36271143 L3.3662591,2.07070023 L4.49897771,3.00872068 C4.5839316,3.0795156 4.70428457,3.08305615 4.79277579,3.02287967 C5.38745305,2.62642815 6.07769941,2.33616092 6.78920851,2.1804283 C6.89539926,2.15918982 6.97327528,2.07069699 6.98389371,1.96096568 L7.12548354,0.491959108 L8.87766976,0.491959108 L9.01925959,1.96096568 C9.02987866,2.06715643 9.10775404,2.15565088 9.21394479,2.1804283 C9.92542153,2.33263655 10.6156679,2.62642815 11.2103775,3.02287967 C11.3024125,3.08305615 11.4227622,3.07597504 11.5041756,3.00872068 L12.6368942,2.07070023 L13.9289054,3.36271143 L12.9908849,4.49543003 C12.9236306,4.58038393 12.9165495,4.69719634 12.973186,4.78922811 C13.3838127,5.42639851 13.6669924,6.09894209 13.8156374,6.78918844 C13.8368759,6.89537919 13.9253687,6.97325522 14.0351,6.98387364 L15.5041066,7.12546347 L15.5111541,8.95907598 Z" id="Shape" stroke-width="0.5"></path>
                            <path d="M8.03494913,3.19282629 C5.36244522,3.19282629 3.18561897,5.369782 3.18561897,8.04215645 C3.18561897,10.7145309 5.36257467,12.8914866 8.03494913,12.8914866 C10.7073236,12.8914866 12.8842793,10.7145309 12.8842793,8.04215645 C12.8842793,5.369782 10.7073236,3.19282629 8.03494913,3.19282629 Z M8.03494913,12.3963268 C5.63500968,12.3963268 3.68110245,10.4423872 3.68110245,8.04248009 C3.68110245,5.642573 5.63504204,3.68863341 8.03494913,3.68863341 C10.4348562,3.68863341 12.3887958,5.642573 12.3887958,8.04248009 C12.3887958,10.4423872 10.4348562,12.3963268 8.03494913,12.3963268 Z" id="Shape" stroke-width="0.5"></path>
                            <path d="M8.01391293,5.95374698 C8.44576998,5.95374698 8.79620076,5.60331621 8.79620076,5.17145915 L8.79620076,4.94491543 C8.79620076,4.51305837 8.44576998,4.1626276 8.01391293,4.1626276 C7.58205587,4.1626276 7.23162509,4.51305837 7.23162509,4.94491543 L7.23162509,5.17145915 C7.23162509,5.59975624 7.58205587,5.95374698 8.01391293,5.95374698 Z M7.65639457,4.94138782 C7.65639457,4.74316206 7.81568393,4.58386947 8.01391293,4.58386947 C8.21214192,4.58386947 8.37143128,4.74315883 8.37143128,4.94138782 L8.37143128,5.16793154 C8.37143128,5.3661573 8.21214192,5.5254499 8.01391293,5.5254499 C7.81568393,5.5254499 7.65639457,5.36616053 7.65639457,5.16793154 L7.65639457,4.94138782 Z" id="Shape" stroke-width="0.5"></path>
                            <path d="M8.38544463,6.05987948 L7.68458308,6.05987948 C6.98016156,6.05987948 6.41027465,6.62978581 6.41027465,7.33420733 L6.41027465,8.67576688 C6.41027465,8.8173567 6.46337003,8.9483281 6.56602346,9.04742803 C6.66513634,9.14654091 6.79256718,9.19963629 6.9306294,9.20317684 C6.98018422,9.20317684 7.02620172,9.19609735 7.07221922,9.18547795 L7.14301414,11.3907516 C7.15363321,11.6880903 7.39787582,11.9252653 7.69519827,11.9252653 C7.82262912,11.9252653 7.94297885,11.8792478 8.03501385,11.8084529 C8.13058618,11.8827884 8.24739859,11.9252653 8.37482944,11.9252653 C8.67570862,11.9252653 8.91639838,11.6916405 8.92701357,11.3907516 L8.99780849,9.18547795 C9.03674488,9.19609703 9.07922183,9.20317684 9.12169877,9.20317684 L9.12877827,9.20317684 C9.26328698,9.20317684 9.39425838,9.15008147 9.4933842,9.05096859 C9.59603764,8.94831516 9.65622719,8.80672533 9.65622719,8.66513227 L9.65622719,7.33418791 C9.65975079,6.63332636 9.08632397,6.05987948 8.38543006,6.05987948 L8.38544463,6.05987948 Z M8.37836514,11.5005082 C8.30757022,11.5005082 8.25093429,11.4438722 8.25093429,11.3730773 L8.25093429,9.07932215 L7.82616482,9.07932215 L7.82616482,11.3730773 C7.82616482,11.4438722 7.76952889,11.5005082 7.69873397,11.5005082 C7.62793906,11.5005082 7.57130313,11.4474128 7.57130313,11.3766179 L7.48280868,8.65809323 L8.59782451,8.65809323 L8.50933006,11.3766179 C8.50225057,11.4474128 8.44561302,11.5005082 8.37835866,11.5005082 L8.37836514,11.5005082 Z M9.23499167,8.66518405 C9.23499167,8.69704192 9.22083269,8.72536054 9.1995926,8.75013795 C9.18897352,8.76075702 9.16419352,8.77845591 9.13233824,8.77845591 C9.09693916,8.77845591 9.07216175,8.76075702 9.06154333,8.75013795 C9.0509249,8.73951887 9.03322536,8.71473887 9.03322536,8.67934303 L9.03322536,7.50769127 L8.60845588,7.50769127 L8.60845588,8.23687078 L7.46512209,8.23687078 L7.46512209,7.50769127 L7.04035261,7.50769127 L7.04035261,8.66872784 C7.04035261,8.70058571 7.02619363,8.72890433 7.00495354,8.75368174 C6.99433446,8.76430081 6.96955446,8.7819997 6.93769918,8.7819997 C6.90230011,8.7819997 6.87752269,8.76430081 6.86690427,8.75368174 C6.85628584,8.74306266 6.8385863,8.71828266 6.8385863,8.68288682 L6.8385863,7.33423969 C6.8385863,6.86697708 7.22086265,6.48470074 7.68812525,6.48470074 L8.3889868,6.48470074 C8.85624941,6.48470074 9.23852575,6.86697708 9.23852575,7.33423969 L9.23499167,8.66518405 Z" id="Shape" stroke-width="0.2"></path>
                        </g>
                    </g>
                    <g id="Group-15-Copy-2" opacity="0.497827439" transform="translate(0.000000, 9.000000)" fill="#EFF3F6">
                        <rect id="Rectangle" opacity="0.3" x="0" y="0" width="24" height="24" rx="6"></rect>
                        <g id="Icon/Select/Location" transform="translate(4.000000, 4.354167)" fill-rule="nonzero" stroke="#EFF3F6">
                            <path d="M15.7837153,6.65117801 L14.2651604,6.50604763 C14.1094116,5.87596481 13.8474785,5.26005716 13.4899601,4.67246748 L14.4562985,3.50434333 C14.5377119,3.40523045 14.530634,3.26010007 14.4421395,3.17161533 L12.8280155,1.55749132 C12.7359805,1.46545631 12.5943907,1.46191899 12.4952875,1.54333233 L11.3271634,2.50967076 C10.7678917,2.16276759 10.1413365,1.89729072 9.49358324,1.73799812 L9.34845286,0.223003166 C9.33783378,0.0955723231 9.22809989,0 9.10067228,0 L6.89895859,0 C6.77152774,0 6.66533375,0.0955723231 6.65117801,0.223003166 L6.50604763,1.73799812 C5.85826204,1.89728748 5.2317392,2.16276759 4.67246748,2.50967076 L3.50434333,1.54333233 C3.40523045,1.46191899 3.26010007,1.46899687 3.17161533,1.55749132 L1.56101893,3.17161533 C1.46898392,3.26365033 1.4654466,3.40524016 1.54685994,3.50434333 L2.51319837,4.67246748 C2.15568001,5.26005716 1.89729072,5.8724372 1.73799812,6.50604763 L0.223003166,6.65117801 C0.0955723231,6.66179708 -8.8817842e-16,6.77153098 -8.8817842e-16,6.89895859 L-8.8817842e-16,9.18562618 C-8.8817842e-16,9.31305702 0.0955723231,9.41925101 0.223003166,9.43340675 L1.73799812,9.57853713 C1.89728748,10.2263227 2.16276759,10.8528456 2.50967076,11.4121173 L1.54333233,12.5802414 C1.46191899,12.6793543 1.46899687,12.8244847 1.55749132,12.9129694 L3.17161533,14.5270934 C3.26365033,14.6191284 3.40524016,14.6226658 3.50434333,14.5412524 L4.67246748,13.574914 C5.26005716,13.9324324 5.8724372,14.1908217 6.50604763,14.3501143 L6.65117801,15.8686692 C6.66179708,15.9961 6.77153098,16.0916723 6.89895859,16.0916723 L9.10067228,16.0916723 C9.22810312,16.0916723 9.33429711,15.9961 9.34845286,15.8686692 L9.49358324,14.3501143 C10.1236661,14.1943654 10.7395737,13.9324324 11.3271634,13.574914 L12.4952875,14.5412524 C12.5944004,14.6226658 12.7395308,14.6155879 12.8280155,14.5270934 L14.4421395,12.9129694 C14.5341746,12.8209344 14.5377119,12.6793446 14.4562985,12.5802414 L13.4899601,11.4121173 C13.8368633,10.8528456 14.1023401,10.2262904 14.2616327,9.57853713 L15.7766277,9.43340675 C15.9040585,9.42278768 15.9996309,9.31305378 15.9996309,9.18562618 L15.9996309,6.89895859 C16.0067104,6.77152774 15.9111364,6.66533375 15.7837056,6.65117801 L15.7837153,6.65117801 Z M15.5111541,8.95907598 L14.0421475,9.10066581 C13.9359567,9.11128488 13.8474623,9.18916026 13.8226849,9.29535101 C13.6704766,10.0068277 13.376685,10.6970741 12.9802335,11.2917837 C12.920057,11.3838187 12.9271381,11.5041685 12.9943925,11.5855818 L13.9324129,12.7183004 L12.6404017,14.0138392 L11.5076831,13.0758188 C11.4227292,13.0085644 11.3059168,13.0014833 11.2138851,13.0581199 C10.5767147,13.4687466 9.90417108,13.7519262 9.21392472,13.9005713 C9.10773397,13.9218097 9.02985795,14.0103026 9.01923952,14.1200339 L8.8776497,15.5890404 L7.12546347,15.5890404 L6.98387364,14.1200339 C6.97325457,14.0138431 6.89537919,13.9253487 6.78918844,13.9005713 C6.09894209,13.7519003 5.42639851,13.4687142 4.78922811,13.0581199 C4.69719311,12.9979434 4.58038393,13.0050245 4.49543003,13.0758188 L3.36271143,14.0138392 L2.07070023,12.721828 L3.00872068,11.5891094 C3.0795156,11.5041555 3.08305615,11.3838026 3.02287967,11.2953113 C2.62642815,10.7006341 2.33616092,10.0103877 2.1804283,9.29887862 C2.15918982,9.19268787 2.07069699,9.11481185 1.96096568,9.10419342 L0.491959108,8.96260359 L0.491959108,7.12546347 L1.96096568,6.98387364 C2.06715643,6.97325457 2.15565088,6.89537919 2.1804283,6.78918844 C2.32909923,6.09894209 2.61228535,5.42639851 3.02287967,4.78922811 C3.08305615,4.69719311 3.07597504,4.58038393 3.00518078,4.49543003 L2.06716032,3.36271143 L3.3662591,2.07070023 L4.49897771,3.00872068 C4.5839316,3.0795156 4.70428457,3.08305615 4.79277579,3.02287967 C5.38745305,2.62642815 6.07769941,2.33616092 6.78920851,2.1804283 C6.89539926,2.15918982 6.97327528,2.07069699 6.98389371,1.96096568 L7.12548354,0.491959108 L8.87766976,0.491959108 L9.01925959,1.96096568 C9.02987866,2.06715643 9.10775404,2.15565088 9.21394479,2.1804283 C9.92542153,2.33263655 10.6156679,2.62642815 11.2103775,3.02287967 C11.3024125,3.08305615 11.4227622,3.07597504 11.5041756,3.00872068 L12.6368942,2.07070023 L13.9289054,3.36271143 L12.9908849,4.49543003 C12.9236306,4.58038393 12.9165495,4.69719634 12.973186,4.78922811 C13.3838127,5.42639851 13.6669924,6.09894209 13.8156374,6.78918844 C13.8368759,6.89537919 13.9253687,6.97325522 14.0351,6.98387364 L15.5041066,7.12546347 L15.5111541,8.95907598 Z" id="Shape" stroke-width="0.5"></path>
                            <path d="M8.03494913,3.19282629 C5.36244522,3.19282629 3.18561897,5.369782 3.18561897,8.04215645 C3.18561897,10.7145309 5.36257467,12.8914866 8.03494913,12.8914866 C10.7073236,12.8914866 12.8842793,10.7145309 12.8842793,8.04215645 C12.8842793,5.369782 10.7073236,3.19282629 8.03494913,3.19282629 Z M8.03494913,12.3963268 C5.63500968,12.3963268 3.68110245,10.4423872 3.68110245,8.04248009 C3.68110245,5.642573 5.63504204,3.68863341 8.03494913,3.68863341 C10.4348562,3.68863341 12.3887958,5.642573 12.3887958,8.04248009 C12.3887958,10.4423872 10.4348562,12.3963268 8.03494913,12.3963268 Z" id="Shape" stroke-width="0.5"></path>
                            <path d="M8.01391293,5.95374698 C8.44576998,5.95374698 8.79620076,5.60331621 8.79620076,5.17145915 L8.79620076,4.94491543 C8.79620076,4.51305837 8.44576998,4.1626276 8.01391293,4.1626276 C7.58205587,4.1626276 7.23162509,4.51305837 7.23162509,4.94491543 L7.23162509,5.17145915 C7.23162509,5.59975624 7.58205587,5.95374698 8.01391293,5.95374698 Z M7.65639457,4.94138782 C7.65639457,4.74316206 7.81568393,4.58386947 8.01391293,4.58386947 C8.21214192,4.58386947 8.37143128,4.74315883 8.37143128,4.94138782 L8.37143128,5.16793154 C8.37143128,5.3661573 8.21214192,5.5254499 8.01391293,5.5254499 C7.81568393,5.5254499 7.65639457,5.36616053 7.65639457,5.16793154 L7.65639457,4.94138782 Z" id="Shape" stroke-width="0.5"></path>
                            <path d="M8.38544463,6.05987948 L7.68458308,6.05987948 C6.98016156,6.05987948 6.41027465,6.62978581 6.41027465,7.33420733 L6.41027465,8.67576688 C6.41027465,8.8173567 6.46337003,8.9483281 6.56602346,9.04742803 C6.66513634,9.14654091 6.79256718,9.19963629 6.9306294,9.20317684 C6.98018422,9.20317684 7.02620172,9.19609735 7.07221922,9.18547795 L7.14301414,11.3907516 C7.15363321,11.6880903 7.39787582,11.9252653 7.69519827,11.9252653 C7.82262912,11.9252653 7.94297885,11.8792478 8.03501385,11.8084529 C8.13058618,11.8827884 8.24739859,11.9252653 8.37482944,11.9252653 C8.67570862,11.9252653 8.91639838,11.6916405 8.92701357,11.3907516 L8.99780849,9.18547795 C9.03674488,9.19609703 9.07922183,9.20317684 9.12169877,9.20317684 L9.12877827,9.20317684 C9.26328698,9.20317684 9.39425838,9.15008147 9.4933842,9.05096859 C9.59603764,8.94831516 9.65622719,8.80672533 9.65622719,8.66513227 L9.65622719,7.33418791 C9.65975079,6.63332636 9.08632397,6.05987948 8.38543006,6.05987948 L8.38544463,6.05987948 Z M8.37836514,11.5005082 C8.30757022,11.5005082 8.25093429,11.4438722 8.25093429,11.3730773 L8.25093429,9.07932215 L7.82616482,9.07932215 L7.82616482,11.3730773 C7.82616482,11.4438722 7.76952889,11.5005082 7.69873397,11.5005082 C7.62793906,11.5005082 7.57130313,11.4474128 7.57130313,11.3766179 L7.48280868,8.65809323 L8.59782451,8.65809323 L8.50933006,11.3766179 C8.50225057,11.4474128 8.44561302,11.5005082 8.37835866,11.5005082 L8.37836514,11.5005082 Z M9.23499167,8.66518405 C9.23499167,8.69704192 9.22083269,8.72536054 9.1995926,8.75013795 C9.18897352,8.76075702 9.16419352,8.77845591 9.13233824,8.77845591 C9.09693916,8.77845591 9.07216175,8.76075702 9.06154333,8.75013795 C9.0509249,8.73951887 9.03322536,8.71473887 9.03322536,8.67934303 L9.03322536,7.50769127 L8.60845588,7.50769127 L8.60845588,8.23687078 L7.46512209,8.23687078 L7.46512209,7.50769127 L7.04035261,7.50769127 L7.04035261,8.66872784 C7.04035261,8.70058571 7.02619363,8.72890433 7.00495354,8.75368174 C6.99433446,8.76430081 6.96955446,8.7819997 6.93769918,8.7819997 C6.90230011,8.7819997 6.87752269,8.76430081 6.86690427,8.75368174 C6.85628584,8.74306266 6.8385863,8.71828266 6.8385863,8.68288682 L6.8385863,7.33423969 C6.8385863,6.86697708 7.22086265,6.48470074 7.68812525,6.48470074 L8.3889868,6.48470074 C8.85624941,6.48470074 9.23852575,6.86697708 9.23852575,7.33423969 L9.23499167,8.66518405 Z" id="Shape" stroke-width="0.2"></path>
                        </g>
                    </g>
                </g>
            </g>
        </g>
    </g>
</svg>