<?xml version="1.0" encoding="UTF-8"?>
<svg width="106px" height="42px" viewBox="0 0 106 42" version="1.1" xmlns="http://www.w3.org/2000/svg" xmlns:xlink="http://www.w3.org/1999/xlink">
    <title>Dashboard Copy</title>
    <g id="Side-Panel" stroke="none" stroke-width="1" fill="none" fill-rule="evenodd">
        <g id="Leads-Copy" transform="translate(-120.000000, -193.000000)">
            <g id="Business-location" transform="translate(83.000000, 170.000000)">
                <g id="Dashboard-Copy" transform="translate(37.000000, 23.000000)">
                    <g id="Group-15" transform="translate(32.000000, 0.000000)">
                        <rect id="Rectangle" fill="#EFF3F6" x="0" y="0" width="42" height="42" rx="10"></rect>
                        <g id="Group-90" transform="translate(8.500000, 9.000000)">
                            <rect id="Icon-Spacing" opacity="0.2" x="0" y="0" width="24" height="24" rx="5"></rect>
                            <g id="location.alt" transform="translate(4.000000, 2.000000)" stroke="#1F3D5A" stroke-linecap="round" stroke-linejoin="round" stroke-width="2">
                                <path d="M16,8.25 C16,12.8063 8,20 8,20 C8,20 0,12.8063 0,8.25 C0,3.69365 3.58172,0 8,0 C12.4183,0 16,3.69365 16,8.25 Z" id="Path"></path>
                            </g>
                            <circle id="Oval" fill="#3D6083" cx="12" cy="10" r="3"></circle>
                        </g>
                    </g>
                    <g id="Group-15-Copy" opacity="0.497827439" transform="translate(82.000000, 9.000000)">
                        <rect id="Rectangle" fill="#EFF3F6" opacity="0.3" x="0" y="0" width="24" height="24" rx="6"></rect>
                        <g id="Icon/Select/Location" transform="translate(3.666667, 4.354167)">
                            <g id="Group-90" transform="translate(-0.000000, 0.000000)">
                                <rect id="Icon-Spacing" opacity="0.2" x="0" y="0" width="16" height="16" rx="5"></rect>
                                <g id="location.alt" transform="translate(2.666667, 1.333333)" stroke="#EFF3F6" stroke-linecap="round" stroke-linejoin="round" stroke-width="2">
                                    <path d="M10.6666667,5.5 C10.6666667,8.53753333 5.33333333,13.3333333 5.33333333,13.3333333 C5.33333333,13.3333333 0,8.53753333 0,5.5 C0,2.46243333 2.38781333,0 5.33333333,0 C8.27886667,0 10.6666667,2.46243333 10.6666667,5.5 Z" id="Path"></path>
                                </g>
                                <circle id="Oval" fill="#EFF3F6" cx="8" cy="6.66666667" r="2"></circle>
                            </g>
                        </g>
                    </g>
                    <g id="Group-15-Copy-2" opacity="0.497827439" transform="translate(0.000000, 9.000000)">
                        <rect id="Rectangle" fill="#EFF3F6" opacity="0.3" x="0" y="0" width="24" height="24" rx="6"></rect>
                        <g id="Icon/Select/Location" transform="translate(3.666667, 4.354167)">
                            <g id="Group-90" transform="translate(-0.000000, 0.000000)">
                                <rect id="Icon-Spacing" opacity="0.2" x="0" y="0" width="16" height="16" rx="5"></rect>
                                <g id="location.alt" transform="translate(2.666667, 1.333333)" stroke="#EFF3F6" stroke-linecap="round" stroke-linejoin="round" stroke-width="2">
                                    <path d="M10.6666667,5.5 C10.6666667,8.53753333 5.33333333,13.3333333 5.33333333,13.3333333 C5.33333333,13.3333333 0,8.53753333 0,5.5 C0,2.46243333 2.38781333,0 5.33333333,0 C8.27886667,0 10.6666667,2.46243333 10.6666667,5.5 Z" id="Path"></path>
                                </g>
                                <circle id="Oval" fill="#EFF3F6" cx="8" cy="6.66666667" r="2"></circle>
                            </g>
                        </g>
                    </g>
                </g>
            </g>
        </g>
    </g>
</svg>