<?xml version="1.0" encoding="UTF-8"?>
<svg width="106px" height="42px" viewBox="0 0 106 42" version="1.1" xmlns="http://www.w3.org/2000/svg" xmlns:xlink="http://www.w3.org/1999/xlink">
    <title>Dashboard Copy</title>
    <g id="Side-Panel" stroke="none" stroke-width="1" fill="none" fill-rule="evenodd">
        <g id="Leads-Copy-3" transform="translate(-129.000000, -426.000000)">
            <g id="Business-location" transform="translate(92.000000, 403.000000)">
                <g id="Dashboard-Copy" transform="translate(37.000000, 23.000000)">
                    <g id="Group-15" transform="translate(32.000000, 0.000000)">
                        <rect id="Rectangle" fill="#EFF3F6" x="0" y="0" width="42" height="42" rx="10"></rect>
                        <g id="people_alt_black_24dp" transform="translate(9.000000, 9.000000)">
                            <rect id="Rectangle" x="0" y="0" width="24" height="24"></rect>
                            <g id="Group" transform="translate(1.000000, 4.000000)" fill="#1F3D5A">
                                <path d="M8,9 C5.33,9 0,10.34 0,13 L0,16 L16,16 L16,13 C16,10.34 10.67,9 8,9 Z M14,14 L2,14 L2,13.01 C2.2,12.29 5.3,11 8,11 C10.7,11 13.8,12.29 14,13 L14,14 Z M8,8 C10.21,8 12,6.21 12,4 C12,1.79 10.21,0 8,0 C5.79,0 4,1.79 4,4 C4,6.21 5.79,8 8,8 Z M8,2 C9.1,2 10,2.9 10,4 C10,5.1 9.1,6 8,6 C6.9,6 6,5.1 6,4 C6,2.9 6.9,2 8,2 Z M14,8 C16.21,8 18,6.21 18,4 C18,1.79 16.21,0 14,0 C13.53,0 13.09,0.1 12.67,0.24 C13.5,1.27 14,2.58 14,4 C14,5.42 13.5,6.73 12.67,7.76 C13.09,7.9 13.53,8 14,8 Z M15.67,9.13 C17.04,10.06 18,11.32 18,13 L18,16 L22,16 L22,13 C22,10.82 18.43,9.53 15.67,9.13 Z" id="Shape"></path>
                            </g>
                        </g>
                    </g>
                    <g id="Group-15-Copy" opacity="0.497827439" transform="translate(82.000000, 9.000000)">
                        <rect id="Rectangle" fill="#EFF3F6" opacity="0.3" x="0" y="0" width="24" height="24" rx="6"></rect>
                        <g id="people_alt_black_24dp" transform="translate(4.000000, 4.354167)">
                            <rect id="Rectangle" x="0" y="0" width="16" height="16"></rect>
                            <g id="Group" transform="translate(0.666667, 2.666667)" fill="#EFF3F6">
                                <path d="M5.33333333,6 C3.55333333,6 8.8817842e-16,6.89333333 8.8817842e-16,8.66666667 L8.8817842e-16,10.6666667 L10.6666667,10.6666667 L10.6666667,8.66666667 C10.6666667,6.89333333 7.11333333,6 5.33333333,6 Z M9.33333333,9.33333333 L1.33333333,9.33333333 L1.33333333,8.67333333 C1.46666667,8.19333333 3.53333333,7.33333333 5.33333333,7.33333333 C7.13333333,7.33333333 9.2,8.19333333 9.33333333,8.66666667 L9.33333333,9.33333333 Z M5.33333333,5.33333333 C6.80666667,5.33333333 8,4.14 8,2.66666667 C8,1.19333333 6.80666667,0 5.33333333,0 C3.86,0 2.66666667,1.19333333 2.66666667,2.66666667 C2.66666667,4.14 3.86,5.33333333 5.33333333,5.33333333 Z M5.33333333,1.33333333 C6.06666667,1.33333333 6.66666667,1.93333333 6.66666667,2.66666667 C6.66666667,3.4 6.06666667,4 5.33333333,4 C4.6,4 4,3.4 4,2.66666667 C4,1.93333333 4.6,1.33333333 5.33333333,1.33333333 Z M9.33333333,5.33333333 C10.8066667,5.33333333 12,4.14 12,2.66666667 C12,1.19333333 10.8066667,0 9.33333333,0 C9.02,0 8.72666667,0.0666666667 8.44666667,0.16 C9,0.846666667 9.33333333,1.72 9.33333333,2.66666667 C9.33333333,3.61333333 9,4.48666667 8.44666667,5.17333333 C8.72666667,5.26666667 9.02,5.33333333 9.33333333,5.33333333 Z M10.4466667,6.08666667 C11.36,6.70666667 12,7.54666667 12,8.66666667 L12,10.6666667 L14.6666667,10.6666667 L14.6666667,8.66666667 C14.6666667,7.21333333 12.2866667,6.35333333 10.4466667,6.08666667 Z" id="Shape"></path>
                            </g>
                        </g>
                    </g>
                    <g id="Group-15-Copy-2" opacity="0.497827439" transform="translate(0.000000, 9.000000)">
                        <rect id="Rectangle" fill="#EFF3F6" opacity="0.3" x="0" y="0" width="24" height="24" rx="6"></rect>
                        <g id="people_alt_black_24dp" transform="translate(4.000000, 4.354167)">
                            <rect id="Rectangle" x="0" y="0" width="16" height="16"></rect>
                            <g id="Group" transform="translate(0.666667, 2.666667)" fill="#EFF3F6">
                                <path d="M5.33333333,6 C3.55333333,6 8.8817842e-16,6.89333333 8.8817842e-16,8.66666667 L8.8817842e-16,10.6666667 L10.6666667,10.6666667 L10.6666667,8.66666667 C10.6666667,6.89333333 7.11333333,6 5.33333333,6 Z M9.33333333,9.33333333 L1.33333333,9.33333333 L1.33333333,8.67333333 C1.46666667,8.19333333 3.53333333,7.33333333 5.33333333,7.33333333 C7.13333333,7.33333333 9.2,8.19333333 9.33333333,8.66666667 L9.33333333,9.33333333 Z M5.33333333,5.33333333 C6.80666667,5.33333333 8,4.14 8,2.66666667 C8,1.19333333 6.80666667,0 5.33333333,0 C3.86,0 2.66666667,1.19333333 2.66666667,2.66666667 C2.66666667,4.14 3.86,5.33333333 5.33333333,5.33333333 Z M5.33333333,1.33333333 C6.06666667,1.33333333 6.66666667,1.93333333 6.66666667,2.66666667 C6.66666667,3.4 6.06666667,4 5.33333333,4 C4.6,4 4,3.4 4,2.66666667 C4,1.93333333 4.6,1.33333333 5.33333333,1.33333333 Z M9.33333333,5.33333333 C10.8066667,5.33333333 12,4.14 12,2.66666667 C12,1.19333333 10.8066667,0 9.33333333,0 C9.02,0 8.72666667,0.0666666667 8.44666667,0.16 C9,0.846666667 9.33333333,1.72 9.33333333,2.66666667 C9.33333333,3.61333333 9,4.48666667 8.44666667,5.17333333 C8.72666667,5.26666667 9.02,5.33333333 9.33333333,5.33333333 Z M10.4466667,6.08666667 C11.36,6.70666667 12,7.54666667 12,8.66666667 L12,10.6666667 L14.6666667,10.6666667 L14.6666667,8.66666667 C14.6666667,7.21333333 12.2866667,6.35333333 10.4466667,6.08666667 Z" id="Shape"></path>
                            </g>
                        </g>
                    </g>
                </g>
            </g>
        </g>
    </g>
</svg>