<?xml version="1.0" encoding="UTF-8"?>
<svg width="106px" height="42px" viewBox="0 0 106 42" version="1.1" xmlns="http://www.w3.org/2000/svg" xmlns:xlink="http://www.w3.org/1999/xlink">
    <title>Dashboard Copy</title>
    <g id="Side-Panel" stroke="none" stroke-width="1" fill="none" fill-rule="evenodd">
        <g id="Leads-Copy-7" transform="translate(-127.000000, -486.000000)">
            <g id="Business-location" transform="translate(90.000000, 463.000000)">
                <g id="Dashboard-Copy" transform="translate(37.000000, 23.000000)">
                    <g id="Group-15" transform="translate(32.000000, 0.000000)">
                        <rect id="Rectangle" fill="#EFF3F6" x="0" y="0" width="42" height="42" rx="10"></rect>
                        <g id="ic_cettings" transform="translate(9.000000, 9.000000)">
                            <rect id="Icon-Spacing" fill="#5C63AB" opacity="0" x="0" y="0" width="24" height="24" rx="5"></rect>
                            <path d="M12,1 C13.4041928,1 14.6164305,1.97583981 14.9057089,3.33906813 L14.9620487,3.60456997 C16.0187125,3.97100667 16.9989315,4.53018512 17.8496972,5.25659712 L18.1073986,5.17297607 C19.4420195,4.73990725 20.8999631,5.29353062 21.6020595,6.5 C22.3041559,7.70646938 22.05845,9.23593256 21.0131075,10.1660921 L20.8112628,10.3456961 C21.0199755,11.4398721 21.0179809,12.5616563 20.8095169,13.6527504 L21.0131075,13.8339079 C22.05845,14.7640674 22.3041559,16.2935306 21.6020595,17.5 C20.8999631,18.7064694 19.4420195,19.2600928 18.1073986,18.8270239 L17.8489013,18.7431446 C17.4276368,19.1020768 16.9710069,19.4233955 16.4827465,19.7030681 C15.9944861,19.9827406 15.4856874,20.2144133 14.9617381,20.3968937 L14.9057089,20.6609319 C14.6164305,22.0241602 13.4041928,23 12,23 C10.5958072,23 9.38356954,22.0241602 9.0942911,20.6609319 L9.03795134,20.39543 C7.98128749,20.0289933 7.00106848,19.4698149 6.15030275,18.7434029 L5.89260144,18.8270239 C4.55798045,19.2600928 3.10003691,18.7064694 2.3979405,17.5 C1.69584409,16.2935306 1.94155,14.7640674 2.98689254,13.8339079 L3.18873722,13.6543039 C2.98002452,12.5601279 2.98201905,11.4383437 3.19048306,10.3472496 L2.98689254,10.1660921 C1.94155,9.23593256 1.69584409,7.70646938 2.3979405,6.5 C3.10003691,5.29353062 4.55798045,4.73990725 5.89260144,5.17297607 L6.15109873,5.2568554 C6.57236321,4.89792321 7.02899307,4.57660445 7.51725346,4.29693193 C8.00551386,4.01725941 8.51431259,3.78558668 9.03826194,3.60310626 L9.0942911,3.33906813 C9.38356954,1.97583981 10.5958072,1 12,1 Z M12,3 C11.5491051,3 11.1598482,3.31334814 11.0669591,3.75108909 L10.8892944,4.58833634 C10.8114745,4.95506343 10.5335057,5.24783893 10.1691714,5.34681839 C9.59910534,5.50168945 9.04776943,5.72966298 8.52520831,6.02898274 C8.00264718,6.3283025 7.52797783,6.68801842 7.10775559,7.10037836 C6.83918785,7.36392123 6.44463546,7.45636169 6.08560413,7.33986025 L5.26592651,7.0738845 C4.83737155,6.93482345 4.36921696,7.1125953 4.1437695,7.5 C3.91832205,7.8874047 3.99721972,8.37852469 4.33288561,8.67720459 L4.97652843,9.24992642 C5.25789505,9.50029012 5.37443941,9.88577875 5.27840989,10.2484464 C4.97455841,11.39598 4.97134193,12.6029051 5.27656206,13.7523709 C5.37290836,14.1152132 5.25641136,14.5010301 4.97485801,14.7515599 L4.33288561,15.3227954 C3.99721972,15.6214753 3.91832205,16.1125953 4.1437695,16.5 C4.36921696,16.8874047 4.83737155,17.0651766 5.26592651,16.9261155 L6.08555244,16.6601565 C6.44502026,16.5435134 6.84005392,16.6363288 7.10861106,16.9005297 C7.95938633,17.7375049 9.014537,18.3382039 10.1681615,18.6509044 C10.5327541,18.7497305 10.8109805,19.0426087 10.8888433,19.4095381 L11.0669591,20.2489109 C11.1598482,20.6866519 11.5491051,21 12,21 C12.4508949,21 12.8401518,20.6866519 12.9330409,20.2489109 L13.1107056,19.4116637 C13.1885255,19.0449366 13.4664943,18.7521611 13.8308286,18.6531816 C14.4008947,18.4983105 14.9522306,18.270337 15.4747917,17.9710173 C15.9973528,17.6716975 16.4720222,17.3119816 16.8922444,16.8996216 C17.1608121,16.6360788 17.5553645,16.5436383 17.9143959,16.6601398 L18.7340735,16.9261155 C19.1626285,17.0651766 19.630783,16.8874047 19.8562305,16.5 C20.081678,16.1125953 20.0027803,15.6214753 19.6671144,15.3227954 L19.0234716,14.7500736 C18.742105,14.4997099 18.6255606,14.1142212 18.7215901,13.7515536 C19.0254416,12.60402 19.0286581,11.3970949 18.7234379,10.2476291 C18.6270916,9.88478681 18.7435886,9.49896992 19.025142,9.24844006 L19.6671144,8.67720459 C20.0027803,8.37852469 20.081678,7.8874047 19.8562305,7.5 C19.630783,7.1125953 19.1626285,6.93482345 18.7340735,7.0738845 L17.9144476,7.33984347 C17.5549797,7.45648656 17.1599461,7.36367124 16.8913889,7.09947025 C16.0406137,6.26249509 14.985463,5.6617961 13.8318385,5.34909564 C13.4672459,5.25026949 13.1890195,4.95739134 13.1111567,4.59046192 L12.9330409,3.75108909 C12.8401518,3.31334814 12.4508949,3 12,3 Z M12,8.36842105 C14.0216204,8.36842105 15.6604676,9.99433433 15.6604676,12 C15.6604676,14.0056657 14.0216204,15.6315789 12,15.6315789 C9.97837957,15.6315789 8.33953241,14.0056657 8.33953241,12 C8.33953241,9.99433433 9.97837957,8.36842105 12,8.36842105 Z M12,10.3684211 C11.0917358,10.3684211 10.3554421,11.0989038 10.3554421,12 C10.3554421,12.9010962 11.0917358,13.6315789 12,13.6315789 C12.9082642,13.6315789 13.6445579,12.9010962 13.6445579,12 C13.6445579,11.0989038 12.9082642,10.3684211 12,10.3684211 Z" id="Combined-Shape" fill="#1F3D5A"></path>
                        </g>
                    </g>
                    <g id="Group-15-Copy" opacity="0.497827439" transform="translate(82.000000, 9.000000)">
                        <rect id="Rectangle" fill="#EFF3F6" opacity="0.3" x="0" y="0" width="24" height="24" rx="6"></rect>
                        <g id="ic_cettings" transform="translate(4.000000, 4.354167)">
                            <rect id="Icon-Spacing" fill="#EFF3F6" opacity="0" x="0" y="0" width="16" height="16" rx="5"></rect>
                            <path d="M8,0.666666667 C8.93612855,0.666666667 9.74428697,1.31722654 9.93713926,2.22604542 L9.97469911,2.40304664 C10.6791417,2.64733778 11.332621,3.02012341 11.8997982,3.50439808 L12.071599,3.44865071 C12.9613464,3.15993817 13.9333087,3.52902041 14.401373,4.33333333 C14.8694373,5.13764625 14.7056333,6.15728838 14.0087383,6.77739471 L13.8741752,6.89713073 C14.013317,7.62658139 14.0119873,8.37443756 13.8730113,9.10183362 L14.0087383,9.22260529 C14.7056333,9.84271162 14.8694373,10.8623537 14.401373,11.6666667 C13.9333087,12.4709796 12.9613464,12.8400618 12.071599,12.5513493 L11.8992675,12.4954297 C11.6184245,12.7347179 11.3140046,12.9489304 10.9884977,13.1353787 C10.6629908,13.3218271 10.3237916,13.4762755 9.97449204,13.5979292 L9.93713926,13.7739546 C9.74428697,14.6827735 8.93612855,15.3333333 8,15.3333333 C7.06387145,15.3333333 6.25571303,14.6827735 6.06286074,13.7739546 L6.02530089,13.5969534 C5.32085833,13.3526622 4.66737899,12.9798766 4.10020183,12.4956019 L3.92840096,12.5513493 C3.03865364,12.8400618 2.06669128,12.4709796 1.598627,11.6666667 C1.13056273,10.8623537 1.29436666,9.84271162 1.99126169,9.22260529 L2.12582481,9.10286927 C1.98668301,8.37341861 1.9880127,7.62556244 2.12698871,6.89816638 L1.99126169,6.77739471 C1.29436666,6.15728838 1.13056273,5.13764625 1.598627,4.33333333 C2.06669128,3.52902041 3.03865364,3.15993817 3.92840096,3.44865071 L4.10073249,3.50457027 C4.38157547,3.26528214 4.68599538,3.05106964 5.01150231,2.86462129 C5.33700924,2.67817294 5.67620839,2.52372445 6.02550796,2.40207084 L6.06286074,2.22604542 C6.25571303,1.31722654 7.06387145,0.666666667 8,0.666666667 Z M8,2 C7.6994034,2 7.43989878,2.20889876 7.37797273,2.50072606 L7.25952958,3.05889089 C7.20764967,3.30337562 7.02233713,3.49855929 6.77944762,3.56454559 C6.39940356,3.66779297 6.03184628,3.81977532 5.6834722,4.01932183 C5.33509812,4.21886834 5.01865189,4.45867894 4.73850373,4.73358557 C4.55945857,4.90928082 4.29642364,4.9709078 4.05706942,4.89324017 L3.51061768,4.715923 C3.22491437,4.62321563 2.9128113,4.7417302 2.762513,5 C2.6122147,5.2582698 2.66481315,5.58568313 2.8885904,5.78480306 L3.31768562,6.16661761 C3.50526336,6.33352674 3.5829596,6.59051917 3.51893993,6.83229759 C3.31637228,7.59732002 3.31422796,8.40193676 3.51770804,9.16824727 C3.58193891,9.41014212 3.50427424,9.66735339 3.31657201,9.8343733 L2.8885904,10.2151969 C2.66481315,10.4143169 2.6122147,10.7417302 2.762513,11 C2.9128113,11.2582698 3.22491437,11.3767844 3.51061768,11.284077 L4.05703496,11.106771 C4.29668017,11.029009 4.56003595,11.0908858 4.73907404,11.2670198 C5.30625755,11.8250033 6.00969133,12.2254693 6.77877433,12.4339362 C7.02183606,12.4998203 7.20732035,12.6950724 7.25922888,12.9396921 L7.37797273,13.4992739 C7.43989878,13.7911012 7.6994034,14 8,14 C8.3005966,14 8.56010122,13.7911012 8.62202727,13.4992739 L8.74047042,12.9411091 C8.79235033,12.6966244 8.97766287,12.5014407 9.22055238,12.4354544 C9.60059644,12.332207 9.96815372,12.1802247 10.3165278,11.9806782 C10.6649019,11.7811317 10.9813481,11.5413211 11.2614963,11.2664144 C11.4405414,11.0907192 11.7035764,11.0290922 11.9429306,11.1067598 L12.4893823,11.284077 C12.7750856,11.3767844 13.0871887,11.2582698 13.237487,11 C13.3877853,10.7417302 13.3351869,10.4143169 13.1114096,10.2151969 L12.6823144,9.83338239 C12.4947366,9.66647326 12.4170404,9.40948083 12.4810601,9.16770241 C12.6836277,8.40267998 12.685772,7.59806324 12.482292,6.83175273 C12.4180611,6.58985788 12.4957258,6.33264661 12.683428,6.1656267 L13.1114096,5.78480306 C13.3351869,5.58568313 13.3877853,5.2582698 13.237487,5 C13.0871887,4.7417302 12.7750856,4.62321563 12.4893823,4.715923 L11.942965,4.89322898 C11.7033198,4.97099104 11.4399641,4.90911416 11.260926,4.73298017 C10.6937424,4.17499672 9.99030867,3.77453073 9.22122567,3.56606376 C8.97816394,3.50017966 8.79267965,3.30492756 8.74077112,3.06030795 L8.62202727,2.50072606 C8.56010122,2.20889876 8.3005966,2 8,2 Z M8,5.57894737 C9.34774695,5.57894737 10.4403117,6.66288955 10.4403117,8 C10.4403117,9.33711045 9.34774695,10.4210526 8,10.4210526 C6.65225305,10.4210526 5.55968828,9.33711045 5.55968828,8 C5.55968828,6.66288955 6.65225305,5.57894737 8,5.57894737 Z M8,6.9122807 C7.3944905,6.9122807 6.90362807,7.39926922 6.90362807,8 C6.90362807,8.60073078 7.3944905,9.0877193 8,9.0877193 C8.6055095,9.0877193 9.09637193,8.60073078 9.09637193,8 C9.09637193,7.39926922 8.6055095,6.9122807 8,6.9122807 Z" id="Combined-Shape" fill="#F5F8FA"></path>
                        </g>
                    </g>
                    <g id="Group-15-Copy-2" opacity="0.497827439" transform="translate(0.000000, 9.000000)">
                        <rect id="Rectangle" fill="#EFF3F6" opacity="0.3" x="0" y="0" width="24" height="24" rx="6"></rect>
                        <g id="ic_cettings" transform="translate(4.000000, 4.354167)">
                            <rect id="Icon-Spacing" fill="#EFF3F6" opacity="0" x="0" y="0" width="16" height="16" rx="5"></rect>
                            <path d="M8,0.666666667 C8.93612855,0.666666667 9.74428697,1.31722654 9.93713926,2.22604542 L9.97469911,2.40304664 C10.6791417,2.64733778 11.332621,3.02012341 11.8997982,3.50439808 L12.071599,3.44865071 C12.9613464,3.15993817 13.9333087,3.52902041 14.401373,4.33333333 C14.8694373,5.13764625 14.7056333,6.15728838 14.0087383,6.77739471 L13.8741752,6.89713073 C14.013317,7.62658139 14.0119873,8.37443756 13.8730113,9.10183362 L14.0087383,9.22260529 C14.7056333,9.84271162 14.8694373,10.8623537 14.401373,11.6666667 C13.9333087,12.4709796 12.9613464,12.8400618 12.071599,12.5513493 L11.8992675,12.4954297 C11.6184245,12.7347179 11.3140046,12.9489304 10.9884977,13.1353787 C10.6629908,13.3218271 10.3237916,13.4762755 9.97449204,13.5979292 L9.93713926,13.7739546 C9.74428697,14.6827735 8.93612855,15.3333333 8,15.3333333 C7.06387145,15.3333333 6.25571303,14.6827735 6.06286074,13.7739546 L6.02530089,13.5969534 C5.32085833,13.3526622 4.66737899,12.9798766 4.10020183,12.4956019 L3.92840096,12.5513493 C3.03865364,12.8400618 2.06669128,12.4709796 1.598627,11.6666667 C1.13056273,10.8623537 1.29436666,9.84271162 1.99126169,9.22260529 L2.12582481,9.10286927 C1.98668301,8.37341861 1.9880127,7.62556244 2.12698871,6.89816638 L1.99126169,6.77739471 C1.29436666,6.15728838 1.13056273,5.13764625 1.598627,4.33333333 C2.06669128,3.52902041 3.03865364,3.15993817 3.92840096,3.44865071 L4.10073249,3.50457027 C4.38157547,3.26528214 4.68599538,3.05106964 5.01150231,2.86462129 C5.33700924,2.67817294 5.67620839,2.52372445 6.02550796,2.40207084 L6.06286074,2.22604542 C6.25571303,1.31722654 7.06387145,0.666666667 8,0.666666667 Z M8,2 C7.6994034,2 7.43989878,2.20889876 7.37797273,2.50072606 L7.25952958,3.05889089 C7.20764967,3.30337562 7.02233713,3.49855929 6.77944762,3.56454559 C6.39940356,3.66779297 6.03184628,3.81977532 5.6834722,4.01932183 C5.33509812,4.21886834 5.01865189,4.45867894 4.73850373,4.73358557 C4.55945857,4.90928082 4.29642364,4.9709078 4.05706942,4.89324017 L3.51061768,4.715923 C3.22491437,4.62321563 2.9128113,4.7417302 2.762513,5 C2.6122147,5.2582698 2.66481315,5.58568313 2.8885904,5.78480306 L3.31768562,6.16661761 C3.50526336,6.33352674 3.5829596,6.59051917 3.51893993,6.83229759 C3.31637228,7.59732002 3.31422796,8.40193676 3.51770804,9.16824727 C3.58193891,9.41014212 3.50427424,9.66735339 3.31657201,9.8343733 L2.8885904,10.2151969 C2.66481315,10.4143169 2.6122147,10.7417302 2.762513,11 C2.9128113,11.2582698 3.22491437,11.3767844 3.51061768,11.284077 L4.05703496,11.106771 C4.29668017,11.029009 4.56003595,11.0908858 4.73907404,11.2670198 C5.30625755,11.8250033 6.00969133,12.2254693 6.77877433,12.4339362 C7.02183606,12.4998203 7.20732035,12.6950724 7.25922888,12.9396921 L7.37797273,13.4992739 C7.43989878,13.7911012 7.6994034,14 8,14 C8.3005966,14 8.56010122,13.7911012 8.62202727,13.4992739 L8.74047042,12.9411091 C8.79235033,12.6966244 8.97766287,12.5014407 9.22055238,12.4354544 C9.60059644,12.332207 9.96815372,12.1802247 10.3165278,11.9806782 C10.6649019,11.7811317 10.9813481,11.5413211 11.2614963,11.2664144 C11.4405414,11.0907192 11.7035764,11.0290922 11.9429306,11.1067598 L12.4893823,11.284077 C12.7750856,11.3767844 13.0871887,11.2582698 13.237487,11 C13.3877853,10.7417302 13.3351869,10.4143169 13.1114096,10.2151969 L12.6823144,9.83338239 C12.4947366,9.66647326 12.4170404,9.40948083 12.4810601,9.16770241 C12.6836277,8.40267998 12.685772,7.59806324 12.482292,6.83175273 C12.4180611,6.58985788 12.4957258,6.33264661 12.683428,6.1656267 L13.1114096,5.78480306 C13.3351869,5.58568313 13.3877853,5.2582698 13.237487,5 C13.0871887,4.7417302 12.7750856,4.62321563 12.4893823,4.715923 L11.942965,4.89322898 C11.7033198,4.97099104 11.4399641,4.90911416 11.260926,4.73298017 C10.6937424,4.17499672 9.99030867,3.77453073 9.22122567,3.56606376 C8.97816394,3.50017966 8.79267965,3.30492756 8.74077112,3.06030795 L8.62202727,2.50072606 C8.56010122,2.20889876 8.3005966,2 8,2 Z M8,5.57894737 C9.34774695,5.57894737 10.4403117,6.66288955 10.4403117,8 C10.4403117,9.33711045 9.34774695,10.4210526 8,10.4210526 C6.65225305,10.4210526 5.55968828,9.33711045 5.55968828,8 C5.55968828,6.66288955 6.65225305,5.57894737 8,5.57894737 Z M8,6.9122807 C7.3944905,6.9122807 6.90362807,7.39926922 6.90362807,8 C6.90362807,8.60073078 7.3944905,9.0877193 8,9.0877193 C8.6055095,9.0877193 9.09637193,8.60073078 9.09637193,8 C9.09637193,7.39926922 8.6055095,6.9122807 8,6.9122807 Z" id="Combined-Shape" fill="#F5F8FA"></path>
                        </g>
                    </g>
                </g>
            </g>
        </g>
    </g>
</svg>