<?xml version="1.0" encoding="UTF-8"?>
<svg width="106px" height="42px" viewBox="0 0 106 42" version="1.1" xmlns="http://www.w3.org/2000/svg" xmlns:xlink="http://www.w3.org/1999/xlink">
    <title>dashboard_tooltip_hover</title>
    <g id="Bin" stroke="none" stroke-width="1" fill="none" fill-rule="evenodd">
        <g id="dashboard_tooltip_hover">
            <g id="Group-15" transform="translate(32.000000, 0.000000)">
                <rect id="Rectangle" fill="#EFF3F6" fill-rule="nonzero" x="0" y="0" width="42" height="42" rx="10"></rect>
                <g id="Group-45-Copy-2" transform="translate(9.000000, 10.000000)" fill="#5563AB">
                    <g id="Component/icon/ic_Notification" transform="translate(1.437500, 0.958333)">
                        <path d="M10.5416667,5.75 C8.95384801,5.75 7.66666667,4.46281866 7.66666667,2.875 C7.66666667,1.28718134 8.95384801,0 10.5416667,0 C12.1294853,0 13.4166667,1.28718134 13.4166667,2.875 C13.4166667,4.46281866 12.1294853,5.75 10.5416667,5.75 Z M10.5416667,3.83333333 C11.0709396,3.83333333 11.5,3.40427289 11.5,2.875 C11.5,2.34572711 11.0709396,1.91666667 10.5416667,1.91666667 C10.0123938,1.91666667 9.58333333,2.34572711 9.58333333,2.875 C9.58333333,3.40427289 10.0123938,3.83333333 10.5416667,3.83333333 Z M9.58333333,5.75 L11.5,5.75 C13.0878187,5.75 14.375,7.03718134 14.375,8.625 L14.375,9.58333333 C14.375,11.171152 13.0878187,12.4583333 11.5,12.4583333 L9.58333333,12.4583333 C7.99551468,12.4583333 6.70833333,11.171152 6.70833333,9.58333333 L6.70833333,8.625 C6.70833333,7.03718134 7.99551468,5.75 9.58333333,5.75 Z M9.58333333,7.66666667 C9.05406045,7.66666667 8.625,8.09572711 8.625,8.625 L8.625,9.58333333 C8.625,10.1126062 9.05406045,10.5416667 9.58333333,10.5416667 L11.5,10.5416667 C12.0292729,10.5416667 12.4583333,10.1126062 12.4583333,9.58333333 L12.4583333,8.625 C12.4583333,8.09572711 12.0292729,7.66666667 11.5,7.66666667 L9.58333333,7.66666667 Z M17.25,14.375 C15.6621813,14.375 14.375,13.0878187 14.375,11.5 C14.375,9.91218134 15.6621813,8.625 17.25,8.625 C18.8378187,8.625 20.125,9.91218134 20.125,11.5 C20.125,13.0878187 18.8378187,14.375 17.25,14.375 Z M17.25,12.4583333 C17.7792729,12.4583333 18.2083333,12.0292729 18.2083333,11.5 C18.2083333,10.9707271 17.7792729,10.5416667 17.25,10.5416667 C16.7207271,10.5416667 16.2916667,10.9707271 16.2916667,11.5 C16.2916667,12.0292729 16.7207271,12.4583333 17.25,12.4583333 Z M16.2916667,14.375 L18.2083333,14.375 C19.796152,14.375 21.0833333,15.6621813 21.0833333,17.25 L21.0833333,18.2083333 C21.0833333,19.796152 19.796152,21.0833333 18.2083333,21.0833333 L16.2916667,21.0833333 C14.703848,21.0833333 13.4166667,19.796152 13.4166667,18.2083333 L13.4166667,17.25 C13.4166667,15.6621813 14.703848,14.375 16.2916667,14.375 Z M16.2916667,16.2916667 C15.7623938,16.2916667 15.3333333,16.7207271 15.3333333,17.25 L15.3333333,18.2083333 C15.3333333,18.7376062 15.7623938,19.1666667 16.2916667,19.1666667 L18.2083333,19.1666667 C18.7376062,19.1666667 19.1666667,18.7376062 19.1666667,18.2083333 L19.1666667,17.25 C19.1666667,16.7207271 18.7376062,16.2916667 18.2083333,16.2916667 L16.2916667,16.2916667 Z M3.83333333,14.375 C2.24551468,14.375 0.958333333,13.0878187 0.958333333,11.5 C0.958333333,9.91218134 2.24551468,8.625 3.83333333,8.625 C5.42115199,8.625 6.70833333,9.91218134 6.70833333,11.5 C6.70833333,13.0878187 5.42115199,14.375 3.83333333,14.375 Z M3.83333333,12.4583333 C4.36260622,12.4583333 4.79166667,12.0292729 4.79166667,11.5 C4.79166667,10.9707271 4.36260622,10.5416667 3.83333333,10.5416667 C3.30406045,10.5416667 2.875,10.9707271 2.875,11.5 C2.875,12.0292729 3.30406045,12.4583333 3.83333333,12.4583333 Z M2.875,14.375 L4.79166667,14.375 C6.37948532,14.375 7.66666667,15.6621813 7.66666667,17.25 L7.66666667,18.2083333 C7.66666667,19.796152 6.37948532,21.0833333 4.79166667,21.0833333 L2.875,21.0833333 C1.28718134,21.0833333 0,19.796152 0,18.2083333 L0,17.25 C0,15.6621813 1.28718134,14.375 2.875,14.375 Z M2.875,16.2916667 C2.34572711,16.2916667 1.91666667,16.7207271 1.91666667,17.25 L1.91666667,18.2083333 C1.91666667,18.7376062 2.34572711,19.1666667 2.875,19.1666667 L4.79166667,19.1666667 C5.32093955,19.1666667 5.75,18.7376062 5.75,18.2083333 L5.75,17.25 C5.75,16.7207271 5.32093955,16.2916667 4.79166667,16.2916667 L2.875,16.2916667 Z" id="Shape"></path>
                    </g>
                </g>
            </g>
            <g id="Group-15-Copy" opacity="0.497827439" transform="translate(82.000000, 9.000000)">
                <rect id="Rectangle" fill="#EFF3F6" fill-rule="nonzero" opacity="0.3" x="0" y="0" width="24" height="24" rx="6"></rect>
                <g id="Group-45-Copy-2" transform="translate(5.000000, 6.000000)" fill="#FFFFFF">
                    <g id="Component/icon/ic_Notification" transform="translate(0.812500, 0.541667)">
                        <path d="M5.95833333,3.25 C5.06087061,3.25 4.33333333,2.52246272 4.33333333,1.625 C4.33333333,0.727537282 5.06087061,0 5.95833333,0 C6.85579605,0 7.58333333,0.727537282 7.58333333,1.625 C7.58333333,2.52246272 6.85579605,3.25 5.95833333,3.25 Z M5.95833333,2.16666667 C6.25748757,2.16666667 6.5,1.92415424 6.5,1.625 C6.5,1.32584576 6.25748757,1.08333333 5.95833333,1.08333333 C5.65917909,1.08333333 5.41666667,1.32584576 5.41666667,1.625 C5.41666667,1.92415424 5.65917909,2.16666667 5.95833333,2.16666667 Z M5.41666667,3.25 L6.5,3.25 C7.39746272,3.25 8.125,3.97753728 8.125,4.875 L8.125,5.41666667 C8.125,6.31412939 7.39746272,7.04166667 6.5,7.04166667 L5.41666667,7.04166667 C4.51920395,7.04166667 3.79166667,6.31412939 3.79166667,5.41666667 L3.79166667,4.875 C3.79166667,3.97753728 4.51920395,3.25 5.41666667,3.25 Z M5.41666667,4.33333333 C5.11751243,4.33333333 4.875,4.57584576 4.875,4.875 L4.875,5.41666667 C4.875,5.71582091 5.11751243,5.95833333 5.41666667,5.95833333 L6.5,5.95833333 C6.79915424,5.95833333 7.04166667,5.71582091 7.04166667,5.41666667 L7.04166667,4.875 C7.04166667,4.57584576 6.79915424,4.33333333 6.5,4.33333333 L5.41666667,4.33333333 Z M9.75,8.125 C8.85253728,8.125 8.125,7.39746272 8.125,6.5 C8.125,5.60253728 8.85253728,4.875 9.75,4.875 C10.6474627,4.875 11.375,5.60253728 11.375,6.5 C11.375,7.39746272 10.6474627,8.125 9.75,8.125 Z M9.75,7.04166667 C10.0491542,7.04166667 10.2916667,6.79915424 10.2916667,6.5 C10.2916667,6.20084576 10.0491542,5.95833333 9.75,5.95833333 C9.45084576,5.95833333 9.20833333,6.20084576 9.20833333,6.5 C9.20833333,6.79915424 9.45084576,7.04166667 9.75,7.04166667 Z M9.20833333,8.125 L10.2916667,8.125 C11.1891294,8.125 11.9166667,8.85253728 11.9166667,9.75 L11.9166667,10.2916667 C11.9166667,11.1891294 11.1891294,11.9166667 10.2916667,11.9166667 L9.20833333,11.9166667 C8.31087061,11.9166667 7.58333333,11.1891294 7.58333333,10.2916667 L7.58333333,9.75 C7.58333333,8.85253728 8.31087061,8.125 9.20833333,8.125 Z M9.20833333,9.20833333 C8.90917909,9.20833333 8.66666667,9.45084576 8.66666667,9.75 L8.66666667,10.2916667 C8.66666667,10.5908209 8.90917909,10.8333333 9.20833333,10.8333333 L10.2916667,10.8333333 C10.5908209,10.8333333 10.8333333,10.5908209 10.8333333,10.2916667 L10.8333333,9.75 C10.8333333,9.45084576 10.5908209,9.20833333 10.2916667,9.20833333 L9.20833333,9.20833333 Z M2.16666667,8.125 C1.26920395,8.125 0.541666667,7.39746272 0.541666667,6.5 C0.541666667,5.60253728 1.26920395,4.875 2.16666667,4.875 C3.06412939,4.875 3.79166667,5.60253728 3.79166667,6.5 C3.79166667,7.39746272 3.06412939,8.125 2.16666667,8.125 Z M2.16666667,7.04166667 C2.46582091,7.04166667 2.70833333,6.79915424 2.70833333,6.5 C2.70833333,6.20084576 2.46582091,5.95833333 2.16666667,5.95833333 C1.86751243,5.95833333 1.625,6.20084576 1.625,6.5 C1.625,6.79915424 1.86751243,7.04166667 2.16666667,7.04166667 Z M1.625,8.125 L2.70833333,8.125 C3.60579605,8.125 4.33333333,8.85253728 4.33333333,9.75 L4.33333333,10.2916667 C4.33333333,11.1891294 3.60579605,11.9166667 2.70833333,11.9166667 L1.625,11.9166667 C0.727537282,11.9166667 0,11.1891294 0,10.2916667 L0,9.75 C0,8.85253728 0.727537282,8.125 1.625,8.125 Z M1.625,9.20833333 C1.32584576,9.20833333 1.08333333,9.45084576 1.08333333,9.75 L1.08333333,10.2916667 C1.08333333,10.5908209 1.32584576,10.8333333 1.625,10.8333333 L2.70833333,10.8333333 C3.00748757,10.8333333 3.25,10.5908209 3.25,10.2916667 L3.25,9.75 C3.25,9.45084576 3.00748757,9.20833333 2.70833333,9.20833333 L1.625,9.20833333 Z" id="Shape"></path>
                    </g>
                </g>
            </g>
            <g id="Group-15-Copy-2" opacity="0.497827439" transform="translate(0.000000, 9.000000)">
                <rect id="Rectangle" fill="#EFF3F6" fill-rule="nonzero" opacity="0.3" x="0" y="0" width="24" height="24" rx="6"></rect>
                <g id="Group-45-Copy-2" transform="translate(5.000000, 6.000000)" fill="#FFFFFF">
                    <g id="Component/icon/ic_Notification" transform="translate(0.812500, 0.541667)">
                        <path d="M5.95833333,3.25 C5.06087061,3.25 4.33333333,2.52246272 4.33333333,1.625 C4.33333333,0.727537282 5.06087061,0 5.95833333,0 C6.85579605,0 7.58333333,0.727537282 7.58333333,1.625 C7.58333333,2.52246272 6.85579605,3.25 5.95833333,3.25 Z M5.95833333,2.16666667 C6.25748757,2.16666667 6.5,1.92415424 6.5,1.625 C6.5,1.32584576 6.25748757,1.08333333 5.95833333,1.08333333 C5.65917909,1.08333333 5.41666667,1.32584576 5.41666667,1.625 C5.41666667,1.92415424 5.65917909,2.16666667 5.95833333,2.16666667 Z M5.41666667,3.25 L6.5,3.25 C7.39746272,3.25 8.125,3.97753728 8.125,4.875 L8.125,5.41666667 C8.125,6.31412939 7.39746272,7.04166667 6.5,7.04166667 L5.41666667,7.04166667 C4.51920395,7.04166667 3.79166667,6.31412939 3.79166667,5.41666667 L3.79166667,4.875 C3.79166667,3.97753728 4.51920395,3.25 5.41666667,3.25 Z M5.41666667,4.33333333 C5.11751243,4.33333333 4.875,4.57584576 4.875,4.875 L4.875,5.41666667 C4.875,5.71582091 5.11751243,5.95833333 5.41666667,5.95833333 L6.5,5.95833333 C6.79915424,5.95833333 7.04166667,5.71582091 7.04166667,5.41666667 L7.04166667,4.875 C7.04166667,4.57584576 6.79915424,4.33333333 6.5,4.33333333 L5.41666667,4.33333333 Z M9.75,8.125 C8.85253728,8.125 8.125,7.39746272 8.125,6.5 C8.125,5.60253728 8.85253728,4.875 9.75,4.875 C10.6474627,4.875 11.375,5.60253728 11.375,6.5 C11.375,7.39746272 10.6474627,8.125 9.75,8.125 Z M9.75,7.04166667 C10.0491542,7.04166667 10.2916667,6.79915424 10.2916667,6.5 C10.2916667,6.20084576 10.0491542,5.95833333 9.75,5.95833333 C9.45084576,5.95833333 9.20833333,6.20084576 9.20833333,6.5 C9.20833333,6.79915424 9.45084576,7.04166667 9.75,7.04166667 Z M9.20833333,8.125 L10.2916667,8.125 C11.1891294,8.125 11.9166667,8.85253728 11.9166667,9.75 L11.9166667,10.2916667 C11.9166667,11.1891294 11.1891294,11.9166667 10.2916667,11.9166667 L9.20833333,11.9166667 C8.31087061,11.9166667 7.58333333,11.1891294 7.58333333,10.2916667 L7.58333333,9.75 C7.58333333,8.85253728 8.31087061,8.125 9.20833333,8.125 Z M9.20833333,9.20833333 C8.90917909,9.20833333 8.66666667,9.45084576 8.66666667,9.75 L8.66666667,10.2916667 C8.66666667,10.5908209 8.90917909,10.8333333 9.20833333,10.8333333 L10.2916667,10.8333333 C10.5908209,10.8333333 10.8333333,10.5908209 10.8333333,10.2916667 L10.8333333,9.75 C10.8333333,9.45084576 10.5908209,9.20833333 10.2916667,9.20833333 L9.20833333,9.20833333 Z M2.16666667,8.125 C1.26920395,8.125 0.541666667,7.39746272 0.541666667,6.5 C0.541666667,5.60253728 1.26920395,4.875 2.16666667,4.875 C3.06412939,4.875 3.79166667,5.60253728 3.79166667,6.5 C3.79166667,7.39746272 3.06412939,8.125 2.16666667,8.125 Z M2.16666667,7.04166667 C2.46582091,7.04166667 2.70833333,6.79915424 2.70833333,6.5 C2.70833333,6.20084576 2.46582091,5.95833333 2.16666667,5.95833333 C1.86751243,5.95833333 1.625,6.20084576 1.625,6.5 C1.625,6.79915424 1.86751243,7.04166667 2.16666667,7.04166667 Z M1.625,8.125 L2.70833333,8.125 C3.60579605,8.125 4.33333333,8.85253728 4.33333333,9.75 L4.33333333,10.2916667 C4.33333333,11.1891294 3.60579605,11.9166667 2.70833333,11.9166667 L1.625,11.9166667 C0.727537282,11.9166667 0,11.1891294 0,10.2916667 L0,9.75 C0,8.85253728 0.727537282,8.125 1.625,8.125 Z M1.625,9.20833333 C1.32584576,9.20833333 1.08333333,9.45084576 1.08333333,9.75 L1.08333333,10.2916667 C1.08333333,10.5908209 1.32584576,10.8333333 1.625,10.8333333 L2.70833333,10.8333333 C3.00748757,10.8333333 3.25,10.5908209 3.25,10.2916667 L3.25,9.75 C3.25,9.45084576 3.00748757,9.20833333 2.70833333,9.20833333 L1.625,9.20833333 Z" id="Shape"></path>
                    </g>
                </g>
            </g>
        </g>
    </g>
</svg>