<?xml version="1.0" encoding="UTF-8"?>
<svg width="24px" height="24px" viewBox="0 0 24 24" version="1.1" xmlns="http://www.w3.org/2000/svg" xmlns:xlink="http://www.w3.org/1999/xlink">
    <title>Icon/support</title>
    <g id="Icon/support" stroke="none" stroke-width="1" fill="none" fill-rule="evenodd">
        <path d="M12,24 C8.81736559,24 5.76518739,22.7357233 3.51477489,20.4852251 C1.26427668,18.2348983 0,15.1825487 0,12 C0,8.8174513 1.26427668,5.76518739 3.51477489,3.51477489 C5.76510168,1.26427668 8.8174513,0 12,0 C15.1825487,0 18.2348126,1.26427668 20.4852251,3.51477489 C22.7357233,5.76510168 24,8.8174513 24,12 C23.996317,15.1814344 22.7308805,18.2313841 20.4812394,20.4809394 C18.2315983,22.7305805 15.181563,23.9960572 12.0003,23.9997 L12,24 Z M11.8463154,2.84635824 C9.45934251,2.84635824 7.17007309,3.79463636 5.48229531,5.48241414 C3.79451753,7.17034387 2.84631538,9.45968927 2.84631538,11.8464342 C2.84631538,14.2331792 3.79451753,16.5226765 5.48229531,18.2104543 C7.17022504,19.8982321 9.45957043,20.8464342 11.8463154,20.8464342 C14.2330603,20.8464342 16.5225577,19.8982321 18.2103355,18.2104543 C19.8981132,16.5225246 20.8463154,14.2331792 20.8463154,11.8464342 C20.843496,9.46037304 19.8943905,7.17285104 18.2072205,5.48545313 C16.5198986,3.79828314 14.2322246,2.84920729 11.8462394,2.84635824 L11.8463154,2.84635824 Z" id="Shape" fill="#000000" fill-rule="nonzero"></path>
        <g id="Group" transform="translate(8.307772, 6.461591)" fill="#000000" fill-rule="nonzero">
            <path d="M3.69222791,9.23061157 C3.4474768,9.23061157 3.21261705,9.13334798 3.03951829,8.96024493 C2.86641524,8.78714188 2.76915165,8.55243641 2.76915165,8.30766387 C2.88885079,7.13480082 3.4878608,6.06355133 4.42415411,5.34737073 C4.99753573,4.77416054 5.53843187,4.23309298 5.53843187,3.69219684 C5.53843187,3.03258727 5.18653867,2.42324876 4.61533846,2.09342255 C4.04414254,1.76362633 3.34034757,1.76362633 2.76915165,2.09342255 C2.19795573,2.42321876 1.84605824,3.03258727 1.84605824,3.69219684 C1.84605824,4.02199306 1.6701095,4.32669231 1.38449011,4.49156256 C1.09888787,4.65646281 0.747166092,4.65646281 0.461568132,4.49156256 C0.175965886,4.32666231 0,4.0219802 0,3.69219684 C0,2.37319198 0.703623546,1.15425783 1.84601539,0.494691109 C2.98840723,-0.164875608 4.39599717,-0.164918465 5.53838901,0.494691109 C6.68078085,1.15430068 7.3844044,2.37319198 7.3844044,3.69219684 C7.26470525,4.86505989 6.66586667,5.93630938 5.72940193,6.65248998 C5.15619174,7.22570017 4.61529561,7.76659631 4.61529561,8.30766387 C4.61529561,8.55241498 4.51803201,8.78714616 4.34492896,8.96024493 C4.17182592,9.13334798 3.93695331,9.23061157 3.69221934,9.23061157 L3.69222791,9.23061157 Z" id="Path"></path>
            <path d="M4.61536418,11.0768841 C4.61536418,11.5866662 4.20203141,11.9999775 3.69227077,11.9999775 C3.18251012,11.9999775 2.76917736,11.5866447 2.76917736,11.0768841 C2.76917736,10.5671234 3.18251012,10.1537907 3.69227077,10.1537907 C4.20203141,10.1537907 4.61536418,10.5671234 4.61536418,11.0768841" id="Path"></path>
        </g>
    </g>
</svg>