<?xml version="1.0" encoding="UTF-8"?><svg version="1.1" width="1920px" height="1054px" viewBox="0 0 1920.0 1054.0" xmlns="http://www.w3.org/2000/svg" xmlns:xlink="http://www.w3.org/1999/xlink"><defs><clipPath id="i0"><path d="M1920,0 L1920,1054 L0,1054 L0,0 L1920,0 Z"></path></clipPath><clipPath id="i1"><path d="M2271.62393,0 C2304.76102,1.0182436e-15 2331.62393,26.862915 2331.62393,60 L2331.62393,708.75882 C2331.62393,741.895905 2304.76102,768.75882 2271.62393,768.75882 C2268.48348,768.75882 2265.34788,768.51226 2262.24602,768.021413 L1183.86364,597.374651 C1177.69606,596.398672 1171.41392,596.39145 1165.24411,597.353245 L69.2416222,768.206111 C36.4999742,773.310118 5.820009,750.905383 0.716001997,718.163735 C0.239381491,715.106266 2.16952362e-14,712.016508 0,708.922113 L0,60 C-4.05812251e-15,26.862915 26.862915,6.08718376e-15 60,0 L2271.62393,0 Z"></path></clipPath></defs><rect x="0px" y="0px" width="1920px" height="1054px" fill="#FFFFFF"></rect><g clip-path="url(#i0)"><g transform="translate(-366.0000000000002 1215.0) scale(1.0 -1.0)"><g clip-path="url(#i1)"><polygon points="366,161 2286,161 2286,768.930706 366,768.930706 366,161" stroke="none" fill="rgba(31, 60, 89, 0.2)" opacity="50%"></polygon></g></g></g></svg>