<?xml version="1.0" encoding="UTF-8"?>
<svg width="348px" height="79px" viewBox="0 0 416 77" version="1.1" xmlns="http://www.w3.org/2000/svg" xmlns:xlink="http://www.w3.org/1999/xlink">
    <title>Float Legal Logo - (new)</title>
    <g id="Organization-Settings" stroke="none" stroke-width="1" fill="none" fill-rule="evenodd">
        <g id="Float-Legal-Logo---(new)">
            <path d="M93.517,13.166 L70.761,13.166 L70.761,26.656 L92.867,26.656 L92.867,37.385 L70.761,37.385 L70.761,59.328 L59.545,59.328 L59.545,7.068 C59.545,4.51 61.618,2.437 64.175,2.437 L93.517,2.437 L93.517,13.166" id="Fill-1" fill="#1F3654"></path>
            <polygon id="Fill-2" fill="#1F3654" points="98.556 59.329 109.04 59.329 109.04 -1.13686838e-13 98.556 -1.13686838e-13"></polygon>
            <path d="M127.447,47.056 C129.532,49.169 132.147,50.226 135.29,50.226 C138.431,50.226 141.06,49.169 143.173,47.056 C145.286,44.944 146.343,42.261 146.343,39.01 C146.343,35.759 145.286,33.077 143.173,30.964 C141.06,28.852 138.431,27.795 135.29,27.795 C132.147,27.795 129.532,28.852 127.447,30.964 C125.361,33.077 124.318,35.759 124.318,39.01 C124.318,42.261 125.361,44.944 127.447,47.056 M150.569,54.249 C146.396,58.394 141.304,60.466 135.29,60.466 C129.276,60.466 124.196,58.394 120.051,54.249 C115.906,50.104 113.834,45.025 113.834,39.01 C113.834,32.996 115.906,27.916 120.051,23.772 C124.196,19.627 129.276,17.555 135.29,17.555 C141.304,17.555 146.396,19.627 150.569,23.772 C154.74,27.916 156.827,32.996 156.827,39.01 C156.827,45.025 154.74,50.104 150.569,54.249" id="Fill-3" fill="#1F3654"></path>
            <path d="M173.082,47.259 C175.195,49.401 177.877,50.47 181.128,50.47 C184.378,50.47 187.073,49.401 189.214,47.259 C191.354,45.119 192.425,42.37 192.425,39.01 C192.425,35.652 191.354,32.903 189.214,30.761 C187.073,28.621 184.378,27.551 181.128,27.551 C177.877,27.551 175.195,28.621 173.082,30.761 C170.969,32.903 169.912,35.652 169.912,39.01 C169.912,42.37 170.969,45.119 173.082,47.259 M192.425,18.693 L202.908,18.693 L202.908,59.328 L192.425,59.328 L192.425,54.533 C189.282,58.488 184.866,60.466 179.177,60.466 C173.759,60.466 169.112,58.394 165.239,54.249 C161.365,50.104 159.428,45.025 159.428,39.01 C159.428,32.996 161.365,27.916 165.239,23.772 C169.112,19.627 173.759,17.555 179.177,17.555 C184.866,17.555 189.282,19.533 192.425,23.488 L192.425,18.693" id="Fill-4" fill="#1F3654"></path>
            <path d="M228.32,28.77 L219.136,28.77 L219.136,45.675 C219.136,47.084 219.488,48.113 220.193,48.763 C220.896,49.414 221.926,49.779 223.281,49.861 C224.634,49.942 226.315,49.929 228.32,49.82 L228.32,59.329 C221.113,60.141 216.034,59.463 213.082,57.296 C210.128,55.13 208.652,51.256 208.652,45.675 L208.652,10.484 L219.136,7.314 L219.136,18.693 L228.32,18.693 L228.32,28.77" id="Fill-5" fill="#1F3654"></path>
            <polygon id="Fill-6" fill="#1F3654" points="7.066 17.535 38.91 17.535 38.91 11.4 7.066 11.4"></polygon>
            <path d="M16.784,21.496 L26.616,21.496 L26.616,27.626 L17.366,27.626 L17.366,32.216 L26.616,32.216 L26.616,38.346 L17.366,38.346 L17.366,49.076 L11.236,49.076 L11.236,27.044 C11.236,23.98 13.72,21.496 16.784,21.496" id="Fill-7" fill="#447EB4"></path>
            <path d="M34.737,21.496 L34.737,43.528 C34.737,46.592 32.253,49.076 29.189,49.076 L19.927,49.076 L19.927,42.936 L28.607,42.936 L28.607,21.496 L34.737,21.496" id="Fill-8" fill="#447EB4"></path>
            <polygon id="Fill-9" fill="#1F3654" points="7.066 59.092 38.91 59.092 38.91 52.957 7.066 52.957"></polygon>
            <polygon id="Fill-10" fill="#1F3654" points="0 8.81 45.976 8.81 45.976 2.675 0 2.675"></polygon>
            <polyline id="Fill-11" fill="#447EB4" points="242.517 52.239 266.979 52.239 266.979 59.367 234.983 59.367 234.983 2.667 242.517 2.667 242.517 52.239"></polyline>
            <path d="M287.796,24.456 C284.016,24.456 280.883,25.524 278.4,27.655 C275.916,29.789 274.377,32.637 273.783,36.201 L300.837,36.201 C300.242,32.367 298.731,29.451 296.301,27.453 C293.871,25.456 291.036,24.456 287.796,24.456 Z M273.783,42.358 C274.484,45.976 276.145,48.784 278.765,50.781 C281.383,52.779 284.609,53.778 288.444,53.778 C293.79,53.778 297.678,51.808 300.108,47.865 L306.103,51.268 C302.16,57.37 296.22,60.42 288.282,60.42 C281.855,60.42 276.631,58.409 272.608,54.386 C268.585,50.363 266.574,45.274 266.574,39.117 C266.574,33.016 268.545,27.94 272.487,23.89 C276.429,19.839 281.531,17.815 287.796,17.815 C293.735,17.815 298.582,19.907 302.336,24.092 C306.088,28.277 307.965,33.314 307.965,39.198 C307.965,40.225 307.884,41.277 307.722,42.358 L273.783,42.358 L273.783,42.358 Z" id="Fill-12" fill="#447EB4"></path>
            <path d="M321.572,49.161 C324.326,51.915 327.755,53.292 331.859,53.292 C335.963,53.292 339.393,51.915 342.147,49.161 C344.9,46.407 346.277,42.979 346.277,38.874 C346.277,34.824 344.9,31.422 342.147,28.668 C339.393,25.914 335.963,24.537 331.859,24.537 C327.755,24.537 324.326,25.914 321.572,28.668 C318.818,31.422 317.441,34.824 317.441,38.874 C317.441,42.979 318.818,46.407 321.572,49.161 Z M346.277,18.867 L353.243,18.867 L353.243,57.666 C353.243,63.66 351.219,68.317 347.168,71.639 C343.118,74.96 338.259,76.62 332.589,76.62 C328.053,76.62 324.137,75.77 320.844,74.068 C317.549,72.368 315.064,69.924 313.392,66.738 L319.548,63.255 C321.761,67.791 326.161,70.06 332.75,70.06 C336.963,70.06 340.27,68.952 342.673,66.738 C345.075,64.524 346.277,61.5 346.277,57.666 L346.277,51.915 C342.714,57.316 337.637,60.016 331.05,60.016 C325.271,60.016 320.384,57.964 316.389,53.859 C312.392,49.756 310.395,44.761 310.395,38.874 C310.395,32.989 312.392,28.008 316.389,23.93 C320.384,19.854 325.271,17.815 331.05,17.815 C337.691,17.815 342.767,20.487 346.277,25.833 L346.277,18.867 L346.277,18.867 Z" id="Fill-13" fill="#447EB4"></path>
            <path d="M379.73,53.616 C383.834,53.616 387.264,52.227 390.018,49.444 C392.772,46.664 394.148,43.222 394.148,39.117 C394.148,35.014 392.772,31.571 390.018,28.79 C387.264,26.009 383.834,24.618 379.73,24.618 C375.681,24.618 372.278,26.009 369.524,28.79 C366.771,31.571 365.394,35.014 365.394,39.117 C365.394,43.222 366.771,46.664 369.524,49.444 C372.278,52.227 375.681,53.616 379.73,53.616 Z M394.148,18.867 L401.195,18.867 L401.195,59.367 L394.148,59.367 L394.148,52.401 C390.638,57.747 385.535,60.42 378.84,60.42 C373.17,60.42 368.336,58.355 364.341,54.224 C360.344,50.093 358.347,45.058 358.347,39.117 C358.347,33.178 360.344,28.142 364.341,24.011 C368.336,19.88 373.17,17.815 378.84,17.815 C385.535,17.815 390.638,20.487 394.148,25.833 L394.148,18.867 L394.148,18.867 Z" id="Fill-14" fill="#447EB4"></path>
            <polygon id="Fill-15" fill="#447EB4" points="408.565 59.367 415.612 59.367 415.612 0.237 408.565 0.237"></polygon>
        </g>
    </g>
</svg>