<?xml version="1.0" encoding="UTF-8"?><svg version="1.1" width="514px" height="391px" viewBox="0 0 514.0 391.0" xmlns="http://www.w3.org/2000/svg" xmlns:xlink="http://www.w3.org/1999/xlink"><defs><clipPath id="i0"><path d="M1600,0 L1600,1054 L0,1054 L0,0 L1600,0 Z"></path></clipPath><clipPath id="i1"><path d="M252.884342,0 C392.548507,0 505.768683,8.58120896 505.768683,19.1666667 C505.768683,29.7521244 392.548507,38.3333333 252.884342,38.3333333 C113.220176,38.3333333 0,29.7521244 0,19.1666667 C0,8.58120896 113.220176,0 252.884342,0 Z"></path></clipPath><clipPath id="i2"><path d="M48.2752876,0 L48.2752876,44.2707424 L0,44.2707424 L0,0 L48.2752876,0 Z"></path></clipPath><clipPath id="i3"><path d="M44.8520949,0 C46.7431603,0 48.2752876,1.57307404 48.2752876,3.51293911 L48.2752876,44.2711318 L0,44.2711318 L0,3.51293911 C0,1.57307404 1.53288608,0 3.42319263,0 Z"></path></clipPath><clipPath id="i4"><path d="M42.4822531,0 L42.4822531,8.03718179 L0.319614747,0 L42.4822531,0 Z"></path></clipPath><clipPath id="i5"><path d="M42.22,0.314 L42.3502058,0.313909477 C36.4691969,0.329098645 27.8431136,0.351520751 18.2345985,0.376836031 C11.9515999,0.365841966 6.0880892,0.355500674 1.12150609,0.347052423 L0.504,0.345 L0.491032176,0.781926987 C0.375046803,4.68467341 0.27796403,7.93749423 0.208257435,10.2823436 C0.162229524,11.4685453 0.125256283,12.4117203 0.098846826,13.0945096 C0.0822465957,13.3953998 0.0686645891,13.6391498 0.0573462502,13.8329925 C0.0452733554,14.0000734 0.0347095725,14.0861453 0.0264094573,14.0861453 C0.0181093422,14.0861453 0.0113183389,13.9993501 0.00679100331,13.8322692 C0.00528189147,13.6377032 0.00301822369,13.3939532 0,13.0923397 C0.00452733554,12.4088272 0.0113183389,11.4649288 0.019618454,10.2787271 C0.058855362,7.815912 0.113937944,4.35133505 0.181093422,0.185163194 L0.183357089,0.0318249239 L0.344832057,0.0318249239 C5.47203956,0.0224221055 11.6209158,0.0115726996 18.2345985,0 C27.8431136,0.0253152804 36.4691969,0.0477373859 42.3502058,0.0636498478 L42.4822531,0.0636498478 L42.4807439,0.188779662 C42.4558436,2.64508515 42.4354706,4.61895373 42.421134,6.01635721 C42.4067975,6.67093803 42.3954791,7.19026293 42.3864245,7.57794836 C42.3751061,7.93308558 42.3630332,8.11824878 42.3502058,8.11824878 C42.3373783,8.11824878 42.3253054,7.93308558 42.3132325,7.57794836 C42.3049324,7.19026293 42.2936141,6.67093803 42.2792775,6.01635721 C42.2658967,4.71211396 42.2472575,2.90570556 42.2245869,0.673580408 L42.22,0.314 Z"></path></clipPath><clipPath id="i6"><path d="M50.2062991,0 L50.2062991,44.2707424 L0,44.2707424 L0,0 L50.2062991,0 Z"></path></clipPath><clipPath id="i7"><path d="M36.6892186,0 L36.6892186,4.02461294 L0,4.02461294 L0,0 L36.6892186,0 Z"></path></clipPath><clipPath id="i8"><path d="M0.0838456707,0.182356246 C0.0793539384,0.178148025 0.136997837,0.173939804 0.2545315,0.169731583 C0.394523826,0.166224732 0.568204144,0.162717881 0.783058675,0.15710692 C1.28313821,0.151495958 1.97261913,0.143079516 2.84775832,0.132558963 C4.68787134,0.11923293 7.30505406,0.100997305 10.545839,0.0785534598 C17.1352103,0.0589150949 26.2511812,0.031561658 36.4938282,0.000701370177 L36.6884699,0 L36.6887858,2.89143143 C36.688891,3.20052746 36.6890314,3.51140979 36.6892186,3.82316883 C36.2991865,4.19138818 36.5739308,3.92556888 36.4840961,4.00762919 L34.9883492,4.00762919 C34.4875211,4.00762919 33.9896874,4.00692782 33.4940996,4.00692782 C32.5036726,4.00622645 31.5222291,4.00622645 30.5527635,4.00552508 C28.6138324,4.00342097 26.7198186,4.00201823 24.8804542,3.99991412 C21.2062171,3.99219905 17.7535722,3.98518535 14.6041192,3.97817164 C8.34189562,3.94520725 3.29318844,3.91925655 0.0838456707,3.90242366 L0,3.90172229 L0.00149724412,3.82457158 C0.0217100397,2.65117927 0.037431103,1.73939804 0.0479118119,1.09203337 C0.0561466545,0.806575704 0.0628842531,0.580734507 0.0681246075,0.403989222 C0.0733649619,0.251791894 0.0786053163,0.177446655 0.0838456707,0.182356246 Z M0.165,3.747 L0.0838456707,3.74742086 C3.29318844,3.73058797 8.34189562,3.70463728 14.6041192,3.67167288 C17.7535722,3.66465917 21.2062171,3.65764547 24.8804542,3.6499304 C26.7198186,3.64782629 28.6138324,3.64642355 30.5527635,3.64431944 C31.5222291,3.64361807 32.5036726,3.64361807 33.4940996,3.6429167 L36.299,3.642 L36.299,0.363 L35.5978971,0.361297363 C25.775426,0.331548482 17.0472693,0.305219798 10.6865799,0.286159032 C7.42707946,0.263715187 4.79417567,0.245479562 2.94358194,0.232153529 C2.04897858,0.221632976 1.34527384,0.213216534 0.834713597,0.206904202 C0.609378357,0.201994611 0.427463196,0.19778639 0.281481895,0.194980909 C0.154964766,0.190772688 0.0883374031,0.186564467 0.0838456707,0.182356246 C0.0890860252,0.187265837 0.0943263796,0.271430259 0.100315356,0.432044029 C0.104807088,0.612296165 0.111544687,0.844449693 0.11977953,1.13692106 C0.129212168,1.71008077 0.142889493,2.49400923 0.160265759,3.48614994 L0.165,3.747 Z"></path></clipPath><clipPath id="i9"><path d="M24.9371704,0 L29.0423508,3.81450191 L50.2062991,3.81450191 L50.2062991,32.1969036 L2.12432426,31.2944941 L0.0203958031,2.88892993 C-0.167135634,1.35740239 0.962448258,0 2.42460743,0 L24.9371704,0 Z"></path></clipPath><clipPath id="i10"><path d="M31.7654851,0 C49.0275978,0 62.2597207,11.8476806 57.3158909,28.6810502 C55.3498328,35.3753307 48.7077614,33.9495081 44.8159779,38.7312113 C39.3765718,45.4144262 35.8945462,57.5928982 26.3203166,57.5928982 C9.05820386,57.5928982 -2.16210306,41.6309794 0.351051619,26.0108743 C2.8642063,10.3907691 14.5033723,0 31.7654851,0 Z"></path></clipPath><clipPath id="i11"><path d="M31.9533723,8.12973584 C36.8077908,17.7433675 36.2309597,42.1291415 29.9570562,43.8473656 C27.4548759,44.5326339 22.1243112,42.8538535 16.699208,39.3793755 L20.1052374,64.9742801 L0,64.9742801 L6.92109905,30.6977881 C3.06116592,25.8837645 0.448724539,19.9841725 0.885280795,13.3735349 C2.14315985,-5.67414209 27.0989537,-1.48389583 31.9533723,8.12973584 Z"></path></clipPath><clipPath id="i12"><path d="M37.6505568,13.8553493 C33.8055199,14.6222501 26.0615957,18.5225398 19.887442,24.1172802 C19.1574219,23.7060258 18.3204974,23.472854 17.4309774,23.472854 C14.5825599,23.472854 12.2734613,25.863811 12.2734613,28.8132058 C12.2734613,30.0169389 12.6580859,31.1276535 13.3070225,32.0207718 C12.0851502,34.160875 11.2510675,36.4094985 10.977674,38.7211361 C6.74199998,38.7211361 -8.71679542,21.6927368 6.68315453,5.6716814 C22.0831045,-10.349374 44.3379386,12.5215368 37.6505568,13.8553493 Z"></path></clipPath><clipPath id="i13"><path d="M45.4413197,0 L69.1430852,193.518209 L52.8750304,193.518209 L30.5704871,111.405989 L0,0 L45.4413197,0 Z"></path></clipPath><clipPath id="i14"><path d="M91.2466444,0 C76.2868758,54.9325696 66.3545838,86.2509645 63.1361853,93.9551847 C59.9177867,101.659405 44.4899259,134.84708 16.8526029,193.518209 L0,193.518209 C21.7090826,132.359711 32.9348329,99.1720358 33.677251,93.9551847 C34.4196691,88.7383336 36.830841,57.4199387 37.5379334,0 Z"></path></clipPath><clipPath id="i15"><path d="M18.5505838,0 C26.7962515,6.01954558 37.5160516,10.9130857 50.7099843,14.6806203 C51.1394345,14.8030296 51.4356029,15.1953915 51.4357097,15.6419466 L51.4357097,17.3886081 C51.4357097,17.9408928 50.9879945,18.3886081 50.4357097,18.3886081 L19.4731713,18.3886081 C19.420335,18.3886081 19.3675818,18.3844206 19.3154072,18.3760849 L9.29676568,16.7754579 C8.88945447,16.7103839 8.50651058,16.9878219 8.44143656,17.3951331 C8.43521102,17.4341 8.43208356,17.473499 8.43208356,17.5129601 C8.43208356,17.9965671 8.0400426,18.3886081 7.55643556,18.3886081 L1.04690572,18.3886081 C0.494620966,18.3886081 0.0469057163,17.9408928 0.0469057163,17.3886081 C0.0469057163,17.3733332 0.0472557023,17.3580602 0.0479553986,17.3428013 L0.799453893,0.954193202 C0.823936415,0.420280672 1.26393065,9.81811997e-17 1.79840421,0 L18.5505838,0 Z"></path></clipPath><clipPath id="i16"><path d="M18.5505838,0 C26.7962515,6.01954558 37.5160516,10.9130857 50.7099843,14.6806203 C51.1394345,14.8030296 51.4356029,15.1953915 51.4357097,15.6419466 L51.4357097,17.3886081 C51.4357097,17.9408928 50.9879945,18.3886081 50.4357097,18.3886081 L19.4731713,18.3886081 C19.420335,18.3886081 19.3675818,18.3844206 19.3154072,18.3760849 L9.29676568,16.7754579 C8.88945447,16.7103839 8.50651058,16.9878219 8.44143656,17.3951331 C8.43521102,17.4341 8.43208356,17.473499 8.43208356,17.5129601 C8.43208356,17.9965671 8.0400426,18.3886081 7.55643556,18.3886081 L1.04690572,18.3886081 C0.494620966,18.3886081 0.0469057163,17.9408928 0.0469057163,17.3886081 C0.0469057163,17.3733332 0.0472557023,17.3580602 0.0479553986,17.3428013 L0.799453893,0.954193202 C0.823936415,0.420280672 1.26393065,3.20225805e-16 1.79840421,0 L18.5505838,0 Z"></path></clipPath><clipPath id="i17"><path d="M7.1749985,0 L33.6571074,20.9697542 C41.0743689,23.2347548 47.2155104,25.9396729 52.0805319,29.0845085 C53.2046905,30.1924591 54.5037381,32.4004217 49.5644082,31.846063 L49.2487858,31.8109516 L48.6162831,31.7426816 C43.9757775,31.2531092 39.3465727,31.0296164 38.5991626,32.5525471 C37.8007927,34.1793141 40.6697572,36.2648637 39.1320702,38.4429249 C38.1069455,39.8949657 34.0009612,36.009379 26.8141172,26.786165 L0,14.6198532 L7.1749985,0 Z"></path></clipPath><clipPath id="i18"><path d="M43.6118928,0 L60.8655061,3.74150425 C48.6015114,26.3109029 40.1502586,41.7727574 35.5117477,50.1270678 L35.1065509,50.8562151 C33.0656938,54.5253101 31.8410643,56.6728301 31.4326621,57.2987751 C28.4684531,61.8419248 30.9125216,70.2401395 31.7818474,74.6588814 C25.5861771,76.0949968 28.2601491,66.4677146 20.4164373,68.4112552 C19.7299217,68.5813623 19.0526808,68.7780458 18.3835435,68.9889794 L17.8119545,69.172982 C17.527125,69.2664407 17.2437224,69.3618699 16.9616546,69.4582993 L16.3992714,69.6522043 C16.2123853,69.7170921 16.0260652,69.782137 15.8402837,69.8470515 L15.2845277,70.041116 C10.2044083,71.8111821 5.51095599,73.2651755 0.636140763,68.4241027 C-0.159333452,67.6341346 -0.693990123,65.1827464 2.11800788,63.9536321 C4.10295976,63.0860167 6.35893428,62.001918 8.61206,60.842325 L9.4067166,60.4301517 C14.829967,57.5953513 20.0492349,54.4179094 21.2225716,52.8756597 C21.6440493,52.3216637 22.2314656,51.2963299 22.9848207,49.7996582 L23.2420849,49.2833107 C26.7542197,42.1659176 33.5441556,25.7381474 43.6118928,0 Z"></path></clipPath><clipPath id="i19"><path d="M7.16340272,0 C22.5530194,31.5956681 47.0269406,59.3865476 80.5851663,83.3726386 L59.6123715,115.373702 C25.0670082,80.0626382 2.39086534,42.4969944 0,1.94046362 L7.16340272,0 Z"></path></clipPath><clipPath id="i20"><path d="M22.8220766,0 L42.4447347,3.05375453 C42.4447347,29.8064054 49.9801398,62.3197544 65.05095,100.593802 L0,100.593802 C3.04542046,57.8013307 7.40051111,25.9059101 22.8220766,0 Z"></path></clipPath><clipPath id="i21"><path d="M53.2638464,0 C54.7965379,0.0551264054 57.131024,0.15444757 60.2673045,0.297963495 L65.0088427,14.4509879 C65.5103924,31.7068335 68.4393659,66.4820184 73.7957634,118.776543 L31.1535651,118.776697 C31.2653517,122.388414 31.4496677,126.033868 31.7065129,129.71306 L0,129.71306 C4.74273504,73.8252292 22.0626104,30.5875425 51.959626,0 L51.974,0.014 L51.9829598,0 L53.2638464,0 Z"></path></clipPath><clipPath id="i22"><path d="M2.94525555,-0.0042363811 C4.15997091,22.5078119 7.19834976,38.0267997 12.0613485,46.5529869 L0.140173491,46.552266 C-0.381629849,30.3557711 0.553397504,14.836937 2.94525555,-0.0042363811 Z"></path></clipPath><clipPath id="i23"><path d="M21.026749,0 L21.026749,10.210031 L0,10.210031 L21.026749,0 Z"></path></clipPath><clipPath id="i24"><path d="M0,0 L10.7255269,1.52254514 C10.6527793,7.07696971 10.5215004,10.7344277 10.3316903,12.494919 L10.4067742,13.3606928 C13.1919394,44.0636553 17.1445254,62.6598955 18.1293732,67.2714153 C18.1602343,67.4660987 17.3089682,69.3291046 15.5755748,72.8604328 L10.5833521,69.6398633 L9.524,12.47 L0,0 Z"></path></clipPath><clipPath id="i25"><path d="M35.2956399,13.3424269 C35.7447773,19.9378528 33.0568494,25.8238668 29.0844402,30.6267157 L36.2068457,64.8229606 L15.5172146,64.8229606 L19.0215209,39.2883069 C13.4387688,42.7542931 7.95343035,44.4288568 5.37929542,43.7452853 C-1.07759361,42.0310287 -1.67069636,17.7020821 3.32498747,8.11076972 C8.31980923,-1.48045388 34.0016759,-5.6609135 35.2956399,13.3424269 Z"></path></clipPath><clipPath id="i26"><path d="M38.0358546,0.498243245 C39.1787762,0.896773713 40.2764679,1.54391949 41.1027811,2.48669071 C41.4707079,2.90635111 41.8047123,3.38401764 42.0221632,3.91139491 C42.1108831,4.12781392 42.1256698,4.25602736 42.3396414,4.33530417 C42.5370867,4.40869591 42.7675846,4.41082474 42.9719884,4.48068017 C44.9420929,5.15576461 46.6277717,6.6958653 47.5454142,8.6732112 C48.0803432,9.82682425 48.3334559,11.8579186 48.2647415,14.1344439 C48.1951572,16.4108812 46.1624269,22.3510119 44.2619067,24.5176651 C42.5649204,26.4515548 40.0703246,27.7277953 37.6635788,28.2863924 C39.2614075,30.1332817 40.3243071,32.4412115 41.1114791,34.7884631 C41.965626,37.3380412 42.4944664,39.9872871 42.6893023,42.6865868 C42.8745704,45.2512074 42.8919665,47.9632625 42.2978908,50.473167 C41.7412167,52.8202426 40.5521956,54.7457754 38.5664346,55.9672997 C37.6574902,56.5268645 36.6789615,56.9472639 35.6943441,57.3314203 C34.7245134,57.7100348 33.7520733,58.0781812 32.7361431,58.290624 C30.813008,58.69255 28.597619,58.6234951 27.1163439,57.0756092 C26.5822847,56.5176279 25.9951675,55.8164345 25.6063654,55.1347701 C25.4663271,54.8896031 25.3810863,54.7293253 25.5515678,54.4897004 C25.7551018,54.2027486 26.0847572,53.9828284 26.346568,53.758334 C27.8400203,52.4783108 28.7646212,50.7694434 28.9968587,48.7386129 C29.2334452,46.6781372 28.6863389,44.0185991 26.7057968,43.1193017 C24.2607797,42.0093208 21.5678686,43.28345 19.3942302,44.4711067 C18.4704991,41.174328 16.5743279,38.205846 13.6013402,36.6935872 C10.3117441,35.0205228 6.53679773,34.8247059 3.15674209,33.3892433 C2.27563134,33.0152031 1.37886414,32.5905813 0.729990871,31.8284261 C0.458612239,31.5098938 0.141134033,31.0967078 0.0324086199,30.6753408 C-0.109369319,30.1219338 0.243770823,29.6579903 0.516019257,29.226595 C1.96163235,26.9389857 7.44313278,22.3174961 10.2960876,21.4378156 C13.1481727,20.558135 17.2893062,20.2597474 19.0306524,20.4616341 C18.0399464,18.0605461 17.6467953,15.3855255 17.966883,12.7809674 C18.2166905,10.7562947 18.9819782,8.97218998 19.8076094,7.18336736 L20.2233465,6.28742731 C20.2927718,6.13765991 20.3620893,5.98757586 20.4310357,5.83703319 C20.9076879,4.7961688 21.4478358,3.76098714 22.2532737,2.96485866 C23.074368,2.15375802 24.1129131,1.61837565 25.2019069,1.36295161 C26.3161249,1.10149297 27.4816613,1.12326506 28.597619,1.36054129 C29.0916672,1.46548718 29.5343971,1.69382585 30.0188776,1.82075496 C30.5146654,1.95080693 30.755601,1.63688413 31.1156995,1.32139551 C31.9828934,0.561210777 33.2545459,0.185947859 34.3522376,0.0516382349 C35.5838791,-0.098980666 36.8616202,0.088866315 38.0358546,0.498243245 Z"></path></clipPath><clipPath id="i27"><path d="M61.8533614,0 L28.6743977,109.36566 L12.6020283,202.374121 L0,202.374121 L16.9831575,0 L61.8533614,0 Z"></path></clipPath><clipPath id="i28"><path d="M46.4683884,0 C44.3734382,59.9742272 46.8388569,90.91005 47.3076798,96.3590238 C47.7765028,101.807998 54.1974104,137.13887 69.3964542,203.955169 L56.9136329,199.31151 C42.5007691,162.54279 33.7888253,136.369816 28.5303036,119.576294 L28.0158796,117.928162 C24.8297122,107.68743 22.9987008,101.192637 21.9518978,98.1348015 C19.1963334,90.087865 11.8795806,57.3762645 0,0 L46.4683884,0 Z"></path></clipPath><clipPath id="i29"><path d="M33.1232165,0.521070955 L34.5742252,3.96096423 C34.5742252,3.96096423 38.3502923,5.68259379 40.7106571,5.68259379 C42.1478877,5.68259379 44.4057777,4.83187655 45.9523721,4.16712222 C46.8755064,3.77079401 47.9725895,4.17217099 48.3161815,5.09861974 C48.9430861,6.78743231 49.7844128,9.32107191 49.7844128,10.7490315 C49.7844128,13.025184 49.0085322,17.391526 49.0085322,17.391526 L0.438923343,17.391526 C0.438923343,17.391526 -1.45470756,11.2757862 2.62447824,10.7877387 C6.70366404,10.3005327 9.40159292,9.90757034 9.40159292,9.90757034 L31.9761877,0.0734136112 C32.4196711,-0.120122459 32.938073,0.0826696841 33.1232165,0.521070955 Z"></path></clipPath><clipPath id="i30"><path d="M66.3792171,0 L52.5651362,56.297996 C29.6302952,143.670762 17.9859097,188.111346 17.6319795,189.619748 C15.96123,189.684679 13.817401,189.719777 11.2004923,189.725042 L9.77087236,189.725042 C6.98699446,189.719777 3.73003701,189.684679 0,189.619748 L16.6623398,0 L66.3792171,0 Z"></path></clipPath><clipPath id="i31"><path d="M50.0996266,0 C52.450539,20.140727 55.6096633,50.1366115 58.6904087,80.2817018 L59.2029885,85.3056008 C64.4890057,137.199105 69.3964542,187.935809 69.3964542,187.935809 L54.6232586,191.306786 C33.6445204,133.535627 19.4804573,88.9646843 12.1310695,57.5939566 C4.78168169,26.2232289 0.737991852,7.02524338 0,0 L50.0996266,0 Z"></path></clipPath><clipPath id="i32"><path d="M64.9438167,0 L64.3485679,44.9764046 L0,45.854641 L0.59524883,0.878236416 L64.9438167,0 Z"></path></clipPath><clipPath id="i33"><path d="M37.8738787,0.668957237 C42.8464037,-1.2968323 48.8923363,1.20132546 50.7585418,6.43839857 L51.6071599,8.81895858 L63.3580693,4.17305258 L63.8099113,3.9942722 C68.5274737,2.40034584 73.7406291,5.09158641 75.2538095,10.0608862 L89.7587674,50.7671911 C89.8017641,50.8855834 89.8017641,50.8855834 89.8455151,51.0055649 C91.781873,56.0781601 89.3816038,61.6441891 84.5659789,63.6838745 L27.1639409,86.3802417 L26.9376427,86.4692346 C21.9945365,88.1521538 16.7383845,85.3417264 15.1837161,80.2532396 L0.677249442,39.5477294 L0.507525819,39.0717763 C-1.117295,34.1461783 1.28146554,28.5817385 5.95678561,26.8686252 L17.7084493,22.2219246 L16.8605855,19.8413646 C14.99438,14.6050861 17.9875503,8.5321154 22.9585667,6.56632586 Z M44.8759388,33.8914524 C44.1580462,31.8902481 42.1470458,30.9348244 40.2344178,31.6859635 C38.3217898,32.4371026 37.4079035,34.5420206 38.1257961,36.5424391 L40.617394,43.4865472 L33.5300821,46.2687476 C31.618205,47.0198867 30.7043187,49.1248047 31.4222113,51.126009 C32.1401039,53.1272132 34.1518552,54.082637 36.0637323,53.3314979 L43.1502932,50.5485119 L45.5570356,57.2569068 C46.2749282,59.2581111 48.2866794,60.2135349 50.1985565,59.4623958 C52.1111846,58.7112567 53.0250708,56.6063387 52.3071783,54.6059201 L49.9004359,47.8975251 L56.9869968,45.1145391 C58.8988739,44.3634 59.8120092,42.2584819 59.0956185,40.2580634 C58.377726,38.2576448 56.3659747,37.3014353 54.4540976,38.0525744 L47.3675366,40.8355605 Z M44.4149134,8.79937041 C43.6837556,7.50730876 42.2229397,7.01962258 40.8753595,7.53721404 L26.0474782,13.2284197 C24.6991481,13.7460112 23.913997,15.0963498 24.1944617,16.5601751 L25.0381054,18.8582812 L45.2585571,11.0974765 Z"></path></clipPath><clipPath id="i34"><path d="M150.266044,3.34732887 C150.266044,3.34732887 152.404052,15.7898665 154.855906,28.8707115 L155.151518,30.4427214 L155.449443,32.0163261 C157.740606,44.075159 160.173891,55.8749673 161.328843,58.2239384 C162.556806,60.7209066 171.642698,68.3054367 177.947037,72.6388404 C180.47837,74.3782145 179.43036,76.6037544 178.474898,77.1947122 C172.868735,80.6625502 168.643551,78.6728317 164.199772,76.1171411 L163.695683,75.8256626 C163.527285,75.7278724 163.358489,75.6295392 163.18921,75.5309257 C161.792436,74.7166409 160.363098,73.8843182 158.852353,73.179979 C155.116023,71.4374745 153.432814,73.0713632 151.920855,74.7661306 L151.710806,75.0026713 L151.466102,75.2780803 C150.161657,76.7367312 148.841495,77.9864116 146.258242,76.8279404 C146.499036,76.2876608 146.782676,75.6855367 147.088595,75.0353114 C149.06636,70.8324681 151.983306,64.6351425 150.266044,60.3695959 C149.657821,58.8590633 145.820043,46.6872128 141.8526,33.9820856 L140.816712,30.6622669 C136.50524,16.8347794 132.359047,3.41776279 132.359047,3.41776279 Z M42.5207155,0 L50.5825916,13.983709 L25.3403846,28.9010969 C19.011195,38.8949823 15.2938886,43.2129249 14.1884655,41.8557836 C13.2561397,40.710803 13.6837414,39.4558768 14.0770663,38.3005888 C14.3838426,37.400409 14.6700529,36.5603557 14.276728,35.8792082 C13.4368034,34.4221363 8.94169016,35.1105345 4.45512573,36.0669603 L3.84371855,36.1988671 C3.74194088,36.2210696 3.64025364,36.2433665 3.53869985,36.2657358 C-1.23432838,37.3170908 -0.13061916,34.9670031 0.883970683,33.7404223 C5.3956392,30.0916019 11.1824004,26.7562983 18.245968,23.7370884 L42.5207155,0 Z"></path></clipPath><clipPath id="i35"><path d="M65.1415702,0 L72.3653206,1.29862684 C73.505649,41.5943206 54.4049402,80.6879615 23.4180837,118.578586 L0,88.7606014 C30.9901981,62.1489077 52.7040549,32.5620698 65.1415702,0 Z"></path></clipPath><clipPath id="i36"><path d="M42.2710873,0 C58.0072721,25.6511695 63.2714629,57.0607657 66.3792171,99.4326392 L0,99.4326392 C0,99.4326392 23.068071,42.5855656 23.068071,2.85036806 L42.2710873,0 Z"></path></clipPath><clipPath id="i37"><path d="M21.403866,0 C21.406353,0.00496900743 21.409669,0.00984766928 21.412156,0.0148166767 L21.4270779,0 L21.4792364,0.0563063493 C23.1724933,1.89458605 65.5723297,48.6927313 72.4136914,132.808017 L41.300616,132.808017 C41.554289,129.027054 41.7109693,125.293071 41.782263,121.610584 L0,121.610584 C0,121.610584 7.88375869,41.2969691 8.62239475,14.7958069 L13.2747243,0.305097056 C13.2747243,0.305097056 17.8914069,0.0846538176 20.147107,0 Z"></path></clipPath><clipPath id="i38"><path d="M9.85949634,0 C12.3883869,13.4888313 13.904566,28.3943386 13.5175793,44.269339 L0,44.269339 C5.77303257,35.2657543 8.53681054,16.0064722 9.85949634,0 Z"></path></clipPath><clipPath id="i39"><path d="M0,0 L22.6292786,11.0673347 L0,11.0673347 L0,0 Z"></path></clipPath></defs><g transform="translate(-204.0 -379.0)"><g clip-path="url(#i0)"><g transform="translate(204.0 379.0)"><g transform="translate(0.0 352.66666666666674)"><g clip-path="url(#i1)"><polygon points="0,0 505.768683,0 505.768683,38.3333333 0,38.3333333 0,0" stroke="none" fill="#FFFFFF"></polygon></g></g><g transform="translate(42.985765124555144 16.78175840685313)"><g transform="translate(42.96919646638638 261.627382978489) rotate(-150.00000000000003)"><g transform="translate(0.12935324319128583 0.5030766180157968)"><g clip-path="url(#i2)"><g clip-path="url(#i3)"><polygon points="1.13686838e-13,0 48.2752876,0 48.2752876,44.2707424 1.13686838e-13,44.2707424 1.13686838e-13,0" stroke="none" fill="#FF715E"></polygon></g></g></g><g transform="translate(0.12935324319128583 0.5030766180157968)"><g clip-path="url(#i2)"><g clip-path="url(#i3)"><polygon points="1.13686838e-13,0 48.2752876,0 48.2752876,44.2707424 1.13686838e-13,44.2707424 1.13686838e-13,0" stroke="none" fill="#000000"></polygon></g></g></g><g transform="translate(3.1205636433952826 9.729373992019898)"><g clip-path="url(#i4)"><polygon points="1.13686838e-13,0 42.4822531,0 42.4822531,14.0861453 1.13686838e-13,14.0861453 1.13686838e-13,0" stroke="none" fill="#4393AD"></polygon></g></g><g transform="translate(3.1205636433952826 9.729373992019898)"><g clip-path="url(#i5)"><polygon points="1.13686838e-13,0 42.4822531,0 42.4822531,14.0861453 1.13686838e-13,14.0861453 1.13686838e-13,0" stroke="none" fill="#FFFFFF"></polygon></g></g><g clip-path="url(#i6)"><g transform="translate(7.525372573565228 3.3964154834745273)"><g clip-path="url(#i7)"><polygon points="1.13686838e-13,0 36.6892186,0 36.6892186,4.02461294 1.13686838e-13,4.02461294 1.13686838e-13,0" stroke="none" fill="#4393AD"></polygon></g></g><g transform="translate(7.525372573565228 3.3964154834745273)"><g clip-path="url(#i8)"><polygon points="1.13686838e-13,0 36.6892186,0 36.6892186,4.02461294 1.13686838e-13,4.02461294 1.13686838e-13,0" stroke="none" fill="#253138"></polygon></g></g><g transform="translate(-2.1203977949706037 14.283504699448184)"><g clip-path="url(#i9)"><polygon points="2.12039779,0 50.2062991,0 50.2062991,29.9872377 2.12039779,29.9872377 2.12039779,0" stroke="none" fill="#5C63AB"></polygon></g></g><g transform="translate(12.103481988987486 27.532479391451886)"><path d="M23.172138,0.100615324 C23.172138,0.129592537 17.9843015,0.152935292 11.5864413,0.152935292 C5.18709192,0.152935292 0,0.129592537 0,0.100615324 C0,0.0716381104 5.18709192,0.0482953553 11.5864413,0.0482953553 C17.9843015,0.0482953553 23.172138,0.0716381104 23.172138,0.100615324" stroke="#FFFFFF" stroke-width="1" fill="none" stroke-linecap="square" stroke-linejoin="round"></path></g><g transform="translate(11.655389210368504 34.77291143860833)"><path d="M23.172138,0.100615324 C23.172138,0.129592537 17.9843015,0.152935292 11.5864413,0.152935292 C5.18709192,0.152935292 0,0.129592537 0,0.100615324 C0,0.0716381104 5.18709192,0.0482953553 11.5864413,0.0482953553 C17.9843015,0.0482953553 23.172138,0.0716381104 23.172138,0.100615324" stroke="#FFFFFF" stroke-width="1" fill="none" stroke-linecap="square" stroke-linejoin="round"></path></g></g></g><g transform="translate(13.282192836602164 0.0)"><g transform="translate(59.24839211486691 0.0)"><g clip-path="url(#i10)"><polygon points="-1.66533454e-16,0 58.3631756,0 58.3631756,57.5928982 -1.66533454e-16,57.5928982 -1.66533454e-16,0" stroke="none" fill="#222222"></polygon></g><g transform="translate(20.45628902991903 16.02105537390026)"><g clip-path="url(#i11)"><polygon points="0,-3.55271368e-15 35.1841655,-3.55271368e-15 35.1841655,64.9742801 0,64.9742801 0,-3.55271368e-15" stroke="none" fill="#FFBC65"></polygon></g></g><g transform="translate(15.965267293082476 10.349373976987277)"><g clip-path="url(#i12)"><polygon points="3.55271368e-15,8.8817842e-16 38.8715786,8.8817842e-16 38.8715786,38.7211361 3.55271368e-15,38.7211361 3.55271368e-15,8.8817842e-16" stroke="none" fill="#232323"></polygon></g></g></g><g transform="translate(25.66248451864142 153.43836849640712)"><g transform="translate(47.21966794627346 0.0)"><g clip-path="url(#i13)"><polygon points="0,0 69.1430852,0 69.1430852,193.518209 0,193.518209 0,0" stroke="none" fill="#1A1A1A"></polygon></g></g><g transform="translate(1.5062747891175903 0.0)"><g clip-path="url(#i14)"><polygon points="0,0 91.2466444,0 91.2466444,193.518209 0,193.518209 0,0" stroke="none" fill="#1A1A1A"></polygon></g></g><g transform="translate(0.0 190.89126500037366)"><g clip-path="url(#i15)"><polygon points="0.0469057163,0 51.4357097,0 51.4357097,18.3886081 0.0469057163,18.3886081 0.0469057163,0" stroke="none" fill="#282828"></polygon></g></g><g transform="translate(97.81216931728028 190.89126500037366)"><g clip-path="url(#i16)"><polygon points="0.0469057163,0 51.4357097,0 51.4357097,18.3886081 0.0469057163,18.3886081 0.0469057163,0" stroke="none" fill="#282828"></polygon></g></g></g><g transform="translate(0.0 58.859964308457734)"><g transform="translate(131.50526193817302 89.68062867169361) rotate(67.00000000000001) scale(1.0 -1.0)"><g clip-path="url(#i17)"><polygon points="0,0 53.1200635,0 53.1200635,38.7391833 0,38.7391833 0,0" stroke="none" fill="#FEBC64"></polygon></g></g><g transform="translate(-0.6895351501910341 91.14833907948979) rotate(-12.0)"><g clip-path="url(#i18)"><polygon points="-1.13686838e-13,-1.42108547e-14 60.8655061,-1.42108547e-14 60.8655061,74.8055975 -1.13686838e-13,74.8055975 -1.13686838e-13,-1.42108547e-14" stroke="none" fill="#FEBC64"></polygon></g></g><g transform="translate(92.30940796369295 2.771887147055054) rotate(5.0)"><g clip-path="url(#i19)"><polygon points="-1.13686838e-13,-7.10542736e-15 80.5851663,-7.10542736e-15 80.5851663,115.373702 -1.13686838e-13,115.373702 -1.13686838e-13,-7.10542736e-15" stroke="none" fill="#1B1B1B"></polygon></g></g><g transform="translate(60.29517581974804 0.0)"><g clip-path="url(#i20)"><polygon points="0,0 65.05095,0 65.05095,100.593802 0,100.593802 0,0" stroke="none" fill="#DCE3E8"></polygon></g></g><g transform="translate(30.726562184497737 0.0)"><g clip-path="url(#i21)"><polygon points="0,0 73.7957634,0 73.7957634,129.71306 0,129.71306 0,0" stroke="none" fill="#1B1B1B"></polygon></g></g><g transform="translate(61.75090782800227 72.57125186567997)"><g clip-path="url(#i22)"><polygon points="-2.15380491e-12,-0.0042363811 12.0613485,-0.0042363811 12.0613485,46.5529869 -2.15380491e-12,46.5529869 -2.15380491e-12,-0.0042363811" stroke="none" fill="rgba(0, 0, 0, 0.1)"></polygon></g></g><g transform="translate(71.3714930955584 81.55975288942679)"><g clip-path="url(#i23)"><polygon points="0,0 21.026749,0 21.026749,10.210031 0,10.210031 0,0" stroke="none" fill="rgba(255, 255, 255, 0.2)"></polygon></g></g></g></g><g transform="translate(105.77982730302472 61.77297564250152)"><g clip-path="url(#i24)"><polygon points="0,0 18.130183,0 18.130183,72.8604328 0,72.8604328 0,0" stroke="none" fill="#163D67"></polygon></g></g></g><g transform="translate(364.64676151225285 20.553621659634267)"><g clip-path="url(#i25)"><polygon points="2.66453526e-15,0 36.2068457,0 36.2068457,64.8229606 2.66453526e-15,64.8229606 2.66453526e-15,0" stroke="none" fill="#FFBC65"></polygon></g></g><g transform="translate(364.64676151225285 0.0)"><g clip-path="url(#i26)"><polygon points="-1.20042865e-14,-1.38777878e-16 48.2757943,-1.38777878e-16 48.2757943,58.4987693 -1.20042865e-14,58.4987693 -1.20042865e-14,-1.38777878e-16" stroke="none" fill="#191847"></polygon></g></g><g transform="translate(346.54333866525576 164.42897327707504)"><g clip-path="url(#i27)"><polygon points="0,0 61.8533614,0 61.8533614,202.374121 0,202.374121 0,0" stroke="none" fill="#FFBC65"></polygon></g></g><g transform="translate(367.66399865342225 162.8479254571026)"><g clip-path="url(#i28)"><polygon points="0,0 69.3964542,0 69.3964542,203.955169 0,203.955169 0,0" stroke="none" fill="#FFBC65"></polygon></g></g><g transform="translate(393.3105143533398 357.3168073136429)"><g clip-path="url(#i29)"><polygon points="-1.95954364e-14,1.78329573e-14 49.7844128,1.78329573e-14 49.7844128,17.391526 -1.95954364e-14,17.391526 -1.95954364e-14,1.78329573e-14" stroke="none" fill="#5C63AB"></polygon></g></g><g transform="translate(314.862348683006 357.3168073136429)"><g clip-path="url(#i29)"><polygon points="-1.95954364e-14,1.78329573e-14 49.7844128,1.78329573e-14 49.7844128,17.391526 -1.95954364e-14,17.391526 -1.95954364e-14,1.78329573e-14" stroke="none" fill="#5C63AB"></polygon></g></g><g transform="translate(345.0347200946744 162.84792545710258)"><g clip-path="url(#i30)"><polygon points="0,0 66.3792171,0 66.3792171,189.725738 0,189.725738 0,0" stroke="none" fill="#163D67"></polygon></g></g><g transform="translate(366.155380082841 162.84792545710255)"><g clip-path="url(#i31)"><polygon points="0,0 69.3964542,0 69.3964542,191.306786 0,191.306786 0,0" stroke="none" fill="#163D67"></polygon></g></g><g transform="translate(423.48288576500147 211.86040787623085)"><g transform="translate(11.363264804507445 39.835744464988785) rotate(-20.573899999999995)"><g clip-path="url(#i32)"><polygon points="-5.68434189e-14,-7.10542736e-15 64.9438167,-7.10542736e-15 64.9438167,45.854641 -5.68434189e-14,45.854641 -5.68434189e-14,-7.10542736e-15" stroke="none" fill="#F83C3C"></polygon></g></g><g clip-path="url(#i33)"><polygon points="-8.8817842e-16,0 90.5171142,0 90.5171142,86.9576301 -8.8817842e-16,86.9576301 -8.8817842e-16,0" stroke="none" fill="#5C63AB"></polygon></g></g><g transform="translate(289.2158329830886 150.19954289732803)"><g clip-path="url(#i34)"><polygon points="4.4408921e-16,0 179.52561,0 179.52561,79.052391 4.4408921e-16,79.052391 4.4408921e-16,0" stroke="none" fill="#FFBC65"></polygon></g></g><g transform="translate(314.86234868300596 74.30924753867828)"><g clip-path="url(#i35)"><polygon points="0,0 72.4136914,0 72.4136914,118.578586 0,118.578586 0,0" stroke="none" fill="#D6DADC"></polygon></g></g><g transform="translate(357.10366865933906 71.32052531423412)"><g clip-path="url(#i36)"><polygon points="0,0 66.3792171,0 66.3792171,99.4326392 0,99.4326392 0,0" stroke="none" fill="#3A3A3A"></polygon></g></g><g transform="translate(375.20709150634275 67.98505625879017)"><g clip-path="url(#i37)"><polygon points="0,0 72.4136914,0 72.4136914,132.808017 0,132.808017 0,0" stroke="none" fill="#EFF3F6"></polygon></g></g><g transform="translate(405.3794629180045 145.45639943741207)"><g clip-path="url(#i38)"><polygon points="0,0 13.5775671,0 13.5775671,44.269339 0,44.269339 0,0" stroke="none" fill="rgba(0, 0, 0, 0.1)"></polygon></g></g><g transform="translate(387.2760400710074 151.78059071729945)"><g clip-path="url(#i39)"><polygon points="0,0 22.6292786,0 22.6292786,11.0673347 0,11.0673347 0,0" stroke="none" fill="rgba(255, 255, 255, 0.2)"></polygon></g></g></g></g></g></svg>